<svg width="360" height="44" viewBox="0 0 360 44" fill="none" xmlns="http://www.w3.org/2000/svg">
<rect width="360" height="44" fill="#E6E6E6"/>
<rect x="12.5" y="4.5" width="334" height="35" rx="11.5" fill="white" stroke="#989898"/>
<path d="M155.646 25.9824C155.646 25.8652 155.689 25.7832 155.775 25.7363C155.865 25.6855 155.967 25.6465 156.08 25.6191C156.197 25.5879 156.311 25.5547 156.42 25.5195C156.533 25.4805 156.613 25.4141 156.66 25.3203C156.688 25.2734 156.707 25.2168 156.719 25.1504C156.734 25.0801 156.744 25.0078 156.748 24.9336C156.756 24.8594 156.76 24.7891 156.76 24.7227C156.764 24.6523 156.766 24.5918 156.766 24.541C156.766 24.1934 156.756 23.8457 156.736 23.498C156.721 23.1504 156.713 22.7949 156.713 22.4316V21.8867C156.713 21.875 156.715 21.8516 156.719 21.8164C156.723 21.7812 156.727 21.7461 156.73 21.7109C156.734 21.6758 156.738 21.6445 156.742 21.6172C156.75 21.5859 156.758 21.5664 156.766 21.5586C156.781 21.2422 156.791 20.9277 156.795 20.6152C156.803 20.3027 156.807 19.9883 156.807 19.6719V18.7402C156.787 18.6895 156.773 18.6387 156.766 18.5879C156.758 18.5371 156.754 18.4844 156.754 18.4297C156.754 18.3984 156.754 18.3711 156.754 18.3477C156.754 18.3203 156.758 18.293 156.766 18.2656C156.73 18.2148 156.68 18.1797 156.613 18.1602C156.547 18.1367 156.473 18.123 156.391 18.1191C156.312 18.1113 156.23 18.1074 156.145 18.1074C156.062 18.1074 155.986 18.1016 155.916 18.0898C155.85 18.0781 155.793 18.0547 155.746 18.0195C155.703 17.9844 155.682 17.9316 155.682 17.8613C155.682 17.7051 155.756 17.6094 155.904 17.5742H156.396H156.883C156.887 17.5742 156.9 17.5762 156.924 17.5801C156.947 17.584 156.971 17.5898 156.994 17.5977C157.021 17.6055 157.045 17.6133 157.064 17.6211C157.084 17.6289 157.096 17.6348 157.1 17.6387H157.311C157.568 17.6387 157.828 17.6211 158.09 17.5859C158.352 17.5508 158.615 17.5332 158.881 17.5332C158.92 17.5332 158.969 17.5352 159.027 17.5391C159.086 17.5391 159.143 17.5469 159.197 17.5625C159.252 17.5781 159.299 17.6016 159.338 17.6328C159.381 17.6641 159.402 17.709 159.402 17.7676C159.402 17.8574 159.367 17.9355 159.297 18.002C159.227 18.0684 159.156 18.1094 159.086 18.125C158.996 18.1445 158.906 18.1582 158.816 18.166C158.73 18.1738 158.645 18.1816 158.559 18.1895C158.477 18.1973 158.393 18.209 158.307 18.2246C158.221 18.2402 158.135 18.2637 158.049 18.2949C158.049 18.334 158.043 18.3984 158.031 18.4883C158.023 18.5781 158.014 18.6738 158.002 18.7754C157.994 18.873 157.984 18.9668 157.973 19.0566C157.961 19.1426 157.953 19.2031 157.949 19.2383V20.0996V20.9727C157.98 21.0234 157.996 21.0781 157.996 21.1367C158 21.1953 158.004 21.252 158.008 21.3066C158.012 21.3613 158.023 21.4121 158.043 21.459C158.066 21.502 158.113 21.5352 158.184 21.5586H158.436H158.682C158.689 21.5586 158.707 21.5566 158.734 21.5527C158.766 21.5488 158.799 21.5449 158.834 21.541C158.869 21.5332 158.902 21.5273 158.934 21.5234C158.965 21.5195 158.984 21.5176 158.992 21.5176H159.965C159.977 21.5176 160.002 21.5156 160.041 21.5117C160.084 21.5078 160.129 21.5039 160.176 21.5C160.223 21.4922 160.266 21.4863 160.305 21.4824C160.344 21.4785 160.369 21.4766 160.381 21.4766H160.416H160.422C160.43 21.4766 160.443 21.4824 160.463 21.4941C160.482 21.5059 160.496 21.5137 160.504 21.5176H162.197C162.213 21.5176 162.229 21.5098 162.244 21.4941C162.26 21.4785 162.273 21.4609 162.285 21.4414C162.301 21.4219 162.312 21.4023 162.32 21.3828C162.332 21.3633 162.342 21.3477 162.35 21.3359C162.35 21.3125 162.355 21.2734 162.367 21.2188C162.383 21.1641 162.391 21.1289 162.391 21.1133C162.395 20.9805 162.396 20.8359 162.396 20.6797C162.4 20.5234 162.402 20.3711 162.402 20.2227C162.406 20.0703 162.408 19.9297 162.408 19.8008C162.412 19.6719 162.416 19.5684 162.42 19.4902C162.42 19.4824 162.424 19.4551 162.432 19.4082C162.439 19.3574 162.443 19.3145 162.443 19.2793C162.443 19.0996 162.432 18.9199 162.408 18.7402C162.385 18.5605 162.365 18.3789 162.35 18.1953C162.307 18.1445 162.256 18.1074 162.197 18.084C162.143 18.0605 162.088 18.043 162.033 18.0312C161.955 18.0391 161.879 18.0449 161.805 18.0488C161.73 18.0527 161.654 18.0547 161.576 18.0547C161.49 18.0547 161.402 18.0527 161.312 18.0488C161.223 18.0449 161.133 18.0391 161.043 18.0312C161.031 18.0312 161.008 18.0137 160.973 17.9785C160.941 17.9434 160.92 17.918 160.908 17.9023C160.904 17.9023 160.902 17.8906 160.902 17.8672C160.902 17.8438 160.902 17.8281 160.902 17.8203C160.902 17.707 160.934 17.6309 160.996 17.5918C161.059 17.5527 161.139 17.5332 161.236 17.5332C161.557 17.5332 161.871 17.5508 162.18 17.5859C162.492 17.6211 162.812 17.6387 163.141 17.6387H163.686C163.803 17.584 163.924 17.5527 164.049 17.5449C164.178 17.5371 164.305 17.5332 164.43 17.5332H164.658C164.74 17.5762 164.793 17.6113 164.816 17.6387C164.84 17.6621 164.852 17.7129 164.852 17.791V17.9023C164.848 17.9023 164.836 17.9102 164.816 17.9258C164.797 17.9375 164.775 17.9512 164.752 17.9668C164.729 17.9785 164.705 17.9922 164.682 18.0078C164.658 18.0195 164.641 18.0273 164.629 18.0312H164.318C164.283 18.0352 164.24 18.041 164.189 18.0488C164.143 18.0566 164.092 18.0664 164.037 18.0781C163.986 18.0898 163.938 18.1035 163.891 18.1191C163.844 18.1348 163.807 18.1504 163.779 18.166C163.756 18.1777 163.738 18.207 163.727 18.2539C163.715 18.3008 163.705 18.3535 163.697 18.4121C163.689 18.4707 163.682 18.5312 163.674 18.5938C163.666 18.6523 163.654 18.7012 163.639 18.7402C163.635 18.7871 163.631 18.8633 163.627 18.9688C163.623 19.0742 163.619 19.1855 163.615 19.3027C163.611 19.4199 163.607 19.5312 163.604 19.6367C163.6 19.7422 163.598 19.8184 163.598 19.8652V20.1641C163.598 20.2227 163.598 20.2695 163.598 20.3047C163.598 20.3398 163.6 20.3887 163.604 20.4512C163.607 20.5137 163.611 20.6016 163.615 20.7148C163.619 20.8281 163.627 20.9883 163.639 21.1953C163.639 21.2383 163.639 21.2891 163.639 21.3477C163.643 21.4023 163.645 21.4609 163.645 21.5234C163.648 21.582 163.65 21.6387 163.65 21.6934C163.654 21.748 163.656 21.7949 163.656 21.834C163.656 21.9512 163.654 22.0664 163.65 22.1797C163.646 22.2891 163.643 22.3965 163.639 22.502C163.635 22.5137 163.631 22.5352 163.627 22.5664C163.623 22.5977 163.619 22.6328 163.615 22.6719C163.611 22.7109 163.607 22.748 163.604 22.7832C163.6 22.8184 163.598 22.8438 163.598 22.8594V22.9707V23.0703C163.598 23.0898 163.6 23.1367 163.604 23.2109C163.611 23.2812 163.617 23.3574 163.621 23.4395C163.625 23.5176 163.629 23.5938 163.633 23.668C163.637 23.7383 163.639 23.7832 163.639 23.8027V23.8203C163.639 23.918 163.631 24.0137 163.615 24.1074C163.604 24.2012 163.598 24.291 163.598 24.377V24.6523C163.598 24.6719 163.6 24.7109 163.604 24.7695C163.607 24.8281 163.611 24.8906 163.615 24.957C163.619 25.0195 163.623 25.082 163.627 25.1445C163.631 25.2031 163.635 25.2441 163.639 25.2676C163.662 25.3145 163.697 25.3691 163.744 25.4316C163.795 25.4902 163.848 25.5234 163.902 25.5312C163.906 25.5391 163.93 25.543 163.973 25.543C164.004 25.543 164.035 25.541 164.066 25.5371C164.098 25.5332 164.117 25.5312 164.125 25.5312C164.156 25.5391 164.201 25.5469 164.26 25.5547C164.322 25.5625 164.383 25.5723 164.441 25.584C164.504 25.5918 164.561 25.5996 164.611 25.6074C164.662 25.6152 164.695 25.6211 164.711 25.625C164.727 25.625 164.756 25.6387 164.799 25.666C164.846 25.6895 164.873 25.709 164.881 25.7246C164.9 25.7324 164.92 25.7461 164.939 25.7656C164.963 25.7852 164.975 25.7988 164.975 25.8066L164.98 25.8125C164.98 25.8164 164.98 25.8203 164.98 25.8242C164.984 25.8242 164.986 25.8262 164.986 25.8301C164.982 25.834 164.98 25.8379 164.98 25.8418C164.977 25.8457 164.975 25.8516 164.975 25.8594C164.967 25.8672 164.951 25.8828 164.928 25.9062C164.908 25.9258 164.893 25.9395 164.881 25.9473C164.846 25.9551 164.812 25.9609 164.781 25.9648C164.754 25.9727 164.725 25.9785 164.693 25.9824C164.666 25.9824 164.645 25.9824 164.629 25.9824C164.617 25.9824 164.59 25.9844 164.547 25.9883C164.508 25.9922 164.461 25.9961 164.406 26C164.355 26.0078 164.303 26.0137 164.248 26.0176C164.197 26.0215 164.156 26.0254 164.125 26.0293H164.113H164.096C164.064 26.0254 164.023 26.0215 163.973 26.0176C163.926 26.0137 163.877 26.0078 163.826 26C163.779 25.9961 163.736 25.9922 163.697 25.9883C163.662 25.9844 163.643 25.9824 163.639 25.9824C163.627 25.9824 163.613 25.9766 163.598 25.9648C163.586 25.9609 163.576 25.9551 163.568 25.9473C163.541 25.9395 163.506 25.9336 163.463 25.9297C163.424 25.9219 163.385 25.918 163.346 25.918C163.311 25.9141 163.277 25.9121 163.246 25.9121C163.219 25.9082 163.203 25.9062 163.199 25.9062C163.191 25.9062 163.172 25.9082 163.141 25.9121C163.109 25.9121 163.076 25.9141 163.041 25.918C163.006 25.9219 162.973 25.9277 162.941 25.9355C162.914 25.9395 162.896 25.9434 162.889 25.9473C162.873 25.9512 162.852 25.9551 162.824 25.959C162.797 25.9629 162.768 25.9668 162.736 25.9707C162.709 25.9746 162.684 25.9785 162.66 25.9824C162.637 25.9824 162.621 25.9824 162.613 25.9824H162.309C162.305 25.9824 162.295 25.9863 162.279 25.9941C162.268 25.998 162.254 26.002 162.238 26.0059C162.223 26.0137 162.207 26.0195 162.191 26.0234C162.18 26.0273 162.172 26.0293 162.168 26.0293C162.098 26.041 162.037 26.0508 161.986 26.0586C161.939 26.0664 161.893 26.0723 161.846 26.0762C161.803 26.0801 161.758 26.082 161.711 26.082C161.664 26.082 161.607 26.082 161.541 26.082C161.529 26.082 161.51 26.0801 161.482 26.0762C161.459 26.0762 161.432 26.0762 161.4 26.0762C161.373 26.0762 161.346 26.0742 161.318 26.0703C161.295 26.0703 161.277 26.0703 161.266 26.0703C161.254 26.0625 161.23 26.0449 161.195 26.0176C161.16 25.9902 161.139 25.9668 161.131 25.9473V25.8594C161.131 25.8047 161.141 25.7617 161.16 25.7305C161.184 25.6953 161.213 25.6699 161.248 25.6543C161.283 25.6348 161.322 25.6211 161.365 25.6133C161.412 25.6016 161.457 25.5918 161.5 25.584C161.516 25.5801 161.539 25.5762 161.57 25.5723C161.605 25.5684 161.643 25.5645 161.682 25.5605C161.721 25.5566 161.756 25.5527 161.787 25.5488C161.822 25.5449 161.848 25.5391 161.863 25.5312C161.871 25.5312 161.9 25.5332 161.951 25.5371C162.002 25.541 162.053 25.543 162.104 25.543C162.123 25.543 162.141 25.543 162.156 25.543C162.176 25.543 162.189 25.5391 162.197 25.5312C162.209 25.5312 162.225 25.5254 162.244 25.5137C162.264 25.498 162.283 25.4805 162.303 25.4609C162.322 25.4414 162.34 25.4238 162.355 25.4082C162.371 25.3887 162.383 25.373 162.391 25.3613C162.395 25.3535 162.4 25.3359 162.408 25.3086C162.42 25.2773 162.43 25.2422 162.438 25.2031C162.449 25.1641 162.459 25.127 162.467 25.0918C162.475 25.0527 162.479 25.0215 162.479 24.998V24.9336V24.875C162.479 24.8633 162.475 24.8418 162.467 24.8105C162.463 24.7793 162.457 24.7461 162.449 24.7109C162.441 24.6758 162.434 24.6445 162.426 24.6172C162.422 24.5859 162.42 24.5664 162.42 24.5586C162.42 24.5469 162.422 24.5312 162.426 24.5117C162.434 24.4883 162.439 24.4648 162.443 24.4414C162.451 24.418 162.459 24.3965 162.467 24.377C162.475 24.3574 162.479 24.3438 162.479 24.3359V23.5977V22.8594C162.479 22.8477 162.477 22.8242 162.473 22.7891C162.469 22.75 162.463 22.709 162.455 22.666C162.451 22.623 162.445 22.582 162.438 22.543C162.43 22.5 162.424 22.4668 162.42 22.4434C162.42 22.4316 162.416 22.4141 162.408 22.3906C162.404 22.3633 162.396 22.3359 162.385 22.3086C162.373 22.2773 162.359 22.25 162.344 22.2266C162.332 22.2031 162.32 22.1875 162.309 22.1797C162.289 22.1758 162.26 22.1699 162.221 22.1621C162.186 22.1543 162.148 22.1465 162.109 22.1387C162.074 22.1309 162.041 22.125 162.01 22.1211C161.979 22.1133 161.957 22.1094 161.945 22.1094C161.934 22.1094 161.91 22.1113 161.875 22.1152C161.844 22.1191 161.807 22.123 161.764 22.127C161.725 22.127 161.686 22.1289 161.646 22.1328C161.611 22.1367 161.586 22.1387 161.57 22.1387C161.527 22.1465 161.451 22.1523 161.342 22.1562C161.236 22.1562 161.123 22.1562 161.002 22.1562C160.877 22.1562 160.76 22.1562 160.65 22.1562C160.541 22.1523 160.465 22.1465 160.422 22.1387L160.334 22.1797H159.795H158.992C158.98 22.1797 158.955 22.1777 158.916 22.1738C158.877 22.1699 158.834 22.166 158.787 22.1621C158.744 22.1582 158.701 22.1543 158.658 22.1504C158.619 22.1465 158.592 22.1426 158.576 22.1387H158.389C158.357 22.1387 158.326 22.1367 158.295 22.1328C158.264 22.125 158.227 22.1172 158.184 22.1094H158.131C158.088 22.1094 158.059 22.127 158.043 22.1621C158.027 22.1973 158.018 22.2363 158.014 22.2793C157.982 22.4668 157.951 22.668 157.92 22.8828C157.893 23.0977 157.879 23.3047 157.879 23.5039V23.5801C157.879 23.584 157.881 23.6016 157.885 23.6328C157.889 23.6602 157.893 23.6914 157.896 23.7266C157.9 23.7617 157.904 23.7949 157.908 23.8262C157.912 23.8535 157.916 23.8711 157.92 23.8789C157.92 23.8906 157.918 23.9102 157.914 23.9375C157.91 23.9648 157.908 23.9961 157.908 24.0312C157.908 24.0742 157.914 24.1133 157.926 24.1484C157.941 24.1836 157.949 24.2227 157.949 24.2656V24.2891C157.949 24.2969 157.943 24.3184 157.932 24.3535C157.924 24.3887 157.92 24.4102 157.92 24.418V25.1914C157.92 25.207 157.936 25.2363 157.967 25.2793C158.002 25.3223 158.029 25.3535 158.049 25.373C158.088 25.416 158.129 25.4395 158.172 25.4434C158.215 25.4434 158.26 25.4473 158.307 25.4551C158.35 25.4629 158.387 25.4727 158.418 25.4844C158.449 25.4961 158.482 25.502 158.518 25.502H158.547C158.562 25.5059 158.588 25.5117 158.623 25.5195C158.658 25.5234 158.695 25.5312 158.734 25.543C158.773 25.5508 158.809 25.5586 158.84 25.5664C158.871 25.5742 158.893 25.5801 158.904 25.584C158.912 25.584 158.926 25.5898 158.945 25.6016C158.969 25.6094 158.984 25.6172 158.992 25.625C159.004 25.6289 159.018 25.6328 159.033 25.6367C159.045 25.6406 159.055 25.6426 159.062 25.6426C159.074 25.6426 159.082 25.6426 159.086 25.6426C159.094 25.6426 159.107 25.6465 159.127 25.6543C159.146 25.6621 159.16 25.666 159.168 25.666H159.209C159.26 25.666 159.312 25.6836 159.367 25.7188C159.422 25.7539 159.449 25.7969 159.449 25.8477C159.449 25.8984 159.434 25.9414 159.402 25.9766C159.371 26.0117 159.34 26.043 159.309 26.0703C159.246 26.082 159.189 26.0918 159.139 26.0996C159.088 26.1074 159.037 26.1133 158.986 26.1172C158.939 26.1211 158.891 26.123 158.84 26.123C158.793 26.123 158.74 26.123 158.682 26.123H158.459C158.369 26.123 158.27 26.1074 158.16 26.0762C158.055 26.0449 157.943 26.0293 157.826 26.0293C157.814 26.0293 157.787 26.0273 157.744 26.0234C157.705 26.0195 157.658 26.0156 157.604 26.0117C157.553 26.0117 157.502 26.0098 157.451 26.0059C157.4 26.002 157.361 26 157.334 26C157.322 26 157.301 26 157.27 26C157.242 26.0039 157.211 26.0078 157.176 26.0117C157.145 26.0156 157.113 26.0176 157.082 26.0176C157.055 26.0215 157.037 26.0254 157.029 26.0293C156.854 26.0566 156.666 26.0781 156.467 26.0938C156.268 26.1133 156.076 26.123 155.893 26.123H155.723C155.684 26.1035 155.66 26.082 155.652 26.0586C155.648 26.0391 155.646 26.0137 155.646 25.9824ZM166.17 18.1016C166.17 18.0156 166.186 17.9336 166.217 17.8555C166.252 17.7773 166.299 17.709 166.357 17.6504C166.416 17.5918 166.484 17.5449 166.562 17.5098C166.645 17.4746 166.73 17.457 166.82 17.457C166.879 17.457 166.936 17.4707 166.99 17.498C167.045 17.5254 167.096 17.5605 167.143 17.6035C167.193 17.6465 167.238 17.6934 167.277 17.7441C167.32 17.791 167.357 17.834 167.389 17.873C167.416 17.8926 167.432 17.9219 167.436 17.9609C167.439 18 167.441 18.041 167.441 18.084C167.441 18.2012 167.418 18.3008 167.371 18.3828C167.324 18.4609 167.262 18.5273 167.184 18.582C167.109 18.6328 167.023 18.6719 166.926 18.6992C166.828 18.7266 166.729 18.7441 166.627 18.752C166.49 18.6816 166.379 18.5957 166.293 18.4941C166.211 18.3926 166.17 18.2617 166.17 18.1016ZM165.736 25.7891C165.736 25.6953 165.762 25.6348 165.812 25.6074C165.863 25.5801 165.926 25.5625 166 25.5547C166.074 25.5469 166.152 25.541 166.234 25.5371C166.32 25.5293 166.395 25.498 166.457 25.4434C166.457 25.4199 166.459 25.375 166.463 25.3086C166.467 25.2422 166.469 25.1719 166.469 25.0977C166.473 25.0195 166.477 24.9473 166.48 24.8809C166.484 24.8145 166.486 24.7676 166.486 24.7402V24.0312C166.486 24.0117 166.486 23.9688 166.486 23.9023C166.49 23.8359 166.494 23.7598 166.498 23.6738C166.506 23.5879 166.512 23.4961 166.516 23.3984C166.52 23.3008 166.523 23.209 166.527 23.123C166.535 23.0371 166.539 22.9629 166.539 22.9004C166.543 22.8379 166.545 22.7969 166.545 22.7773V22.0449C166.545 22.0449 166.547 22.0371 166.551 22.0215C166.555 22.002 166.559 21.9844 166.562 21.9688C166.57 21.9492 166.576 21.9316 166.58 21.916C166.584 21.8965 166.586 21.8867 166.586 21.8867L166.598 21.8633C166.598 21.8555 166.596 21.8496 166.592 21.8457C166.592 21.8418 166.592 21.8379 166.592 21.834C166.588 21.8301 166.586 21.8262 166.586 21.8223C166.586 21.8223 166.58 21.8164 166.568 21.8047C166.557 21.7891 166.543 21.7734 166.527 21.7578C166.512 21.7383 166.496 21.7207 166.48 21.7051C166.469 21.6855 166.461 21.6719 166.457 21.6641C166.418 21.6094 166.357 21.5703 166.275 21.5469C166.197 21.5195 166.117 21.4941 166.035 21.4707C165.957 21.4473 165.887 21.4199 165.824 21.3887C165.766 21.3535 165.736 21.3027 165.736 21.2363C165.736 21.1934 165.758 21.1582 165.801 21.1309C165.848 21.0996 165.887 21.0801 165.918 21.0723C165.93 21.0684 165.959 21.0625 166.006 21.0547C166.053 21.0469 166.104 21.0391 166.158 21.0312C166.217 21.0234 166.27 21.0156 166.316 21.0078C166.363 20.9961 166.393 20.9883 166.404 20.9844C166.408 20.9805 166.422 20.9746 166.445 20.9668C166.469 20.959 166.492 20.9512 166.516 20.9434C166.543 20.9316 166.566 20.9219 166.586 20.9141C166.609 20.9062 166.623 20.9023 166.627 20.9023C166.662 20.8906 166.721 20.877 166.803 20.8613C166.885 20.8457 166.949 20.8262 166.996 20.8027C167.035 20.7832 167.068 20.7637 167.096 20.7441C167.127 20.7207 167.156 20.7012 167.184 20.6855C167.215 20.666 167.246 20.6523 167.277 20.6445C167.312 20.6328 167.354 20.627 167.4 20.627C167.471 20.627 167.523 20.6602 167.559 20.7266C167.594 20.793 167.611 20.8613 167.611 20.9316C167.611 21.0449 167.602 21.1602 167.582 21.2773C167.566 21.3906 167.559 21.5059 167.559 21.623C167.559 21.7207 167.561 21.8066 167.564 21.8809C167.568 21.9512 167.584 22.043 167.611 22.1562V24.5527C167.615 24.5645 167.619 24.5801 167.623 24.5996C167.631 24.6191 167.635 24.6406 167.635 24.6641C167.639 24.6875 167.643 24.7109 167.646 24.7344C167.65 24.7539 167.656 24.7676 167.664 24.7754V24.8047V24.834C167.664 24.8418 167.662 24.8555 167.658 24.875C167.654 24.8945 167.65 24.918 167.646 24.9453C167.643 24.9688 167.637 24.9922 167.629 25.0156C167.621 25.0352 167.615 25.0488 167.611 25.0566V25.1094C167.611 25.1211 167.615 25.1484 167.623 25.1914C167.631 25.2344 167.641 25.2812 167.652 25.332C167.668 25.3828 167.684 25.4297 167.699 25.4727C167.715 25.5117 167.73 25.5352 167.746 25.543C167.75 25.5508 167.76 25.5547 167.775 25.5547C167.791 25.5547 167.805 25.5547 167.816 25.5547C167.84 25.5547 167.861 25.5527 167.881 25.5488C167.904 25.5449 167.92 25.543 167.928 25.543C167.932 25.5508 167.951 25.5605 167.986 25.5723C168.025 25.5801 168.049 25.584 168.057 25.584C168.068 25.5918 168.092 25.5977 168.127 25.6016C168.162 25.6055 168.197 25.6094 168.232 25.6133C168.271 25.6133 168.309 25.6172 168.344 25.625C168.379 25.6289 168.402 25.6328 168.414 25.6367C168.457 25.6445 168.484 25.6719 168.496 25.7188C168.508 25.7656 168.514 25.8047 168.514 25.8359C168.514 25.8984 168.488 25.9453 168.438 25.9766C168.387 26.0039 168.334 26.0215 168.279 26.0293H167.805H167.295C167.287 26.0293 167.268 26.0273 167.236 26.0234C167.209 26.0195 167.178 26.0137 167.143 26.0059C167.111 26.002 167.08 25.998 167.049 25.9941C167.021 25.9863 167.004 25.9824 166.996 25.9824H166.943C166.838 25.9824 166.727 25.9902 166.609 26.0059C166.496 26.0215 166.381 26.0293 166.264 26.0293H165.959C165.951 26.0215 165.924 26.0078 165.877 25.9883C165.834 25.9688 165.805 25.9551 165.789 25.9473C165.77 25.9316 165.756 25.916 165.748 25.9004C165.74 25.8809 165.736 25.8633 165.736 25.8477V25.7891ZM171.373 21.0254H171.273C171.125 21.0254 170.975 21.0508 170.822 21.1016C170.67 21.1523 170.553 21.2402 170.471 21.3652C170.459 21.3887 170.439 21.4238 170.412 21.4707C170.389 21.5137 170.365 21.5586 170.342 21.6055C170.318 21.6523 170.297 21.6973 170.277 21.7402C170.258 21.7793 170.248 21.8047 170.248 21.8164C170.248 21.8164 170.244 21.8477 170.236 21.9102C170.232 21.9727 170.225 22.0469 170.213 22.1328C170.205 22.2188 170.195 22.3086 170.184 22.4023C170.176 22.4922 170.168 22.5664 170.16 22.625C170.16 22.6367 170.16 22.6621 170.16 22.7012C170.164 22.7363 170.166 22.7734 170.166 22.8125C170.166 22.8516 170.166 22.8887 170.166 22.9238C170.17 22.9551 170.172 22.9766 170.172 22.9883C170.176 23.0156 170.178 23.0488 170.178 23.0879C170.178 23.123 170.178 23.1445 170.178 23.1523C170.182 23.207 170.186 23.2676 170.189 23.334C170.193 23.3965 170.197 23.459 170.201 23.5215C170.209 23.5801 170.215 23.6367 170.219 23.6914C170.227 23.7422 170.236 23.7852 170.248 23.8203C170.252 23.8281 170.26 23.8477 170.271 23.8789C170.287 23.9102 170.301 23.9453 170.312 23.9844C170.328 24.0195 170.342 24.0527 170.354 24.084C170.369 24.1152 170.379 24.1328 170.383 24.1367C170.434 24.2734 170.49 24.416 170.553 24.5645C170.615 24.7129 170.691 24.8496 170.781 24.9746C170.871 25.0996 170.977 25.2031 171.098 25.2852C171.219 25.3633 171.365 25.4023 171.537 25.4023C171.549 25.4023 171.559 25.3984 171.566 25.3906L171.578 25.3789C171.582 25.3789 171.596 25.377 171.619 25.373C171.643 25.3652 171.668 25.3574 171.695 25.3496C171.727 25.3418 171.756 25.334 171.783 25.3262C171.814 25.3184 171.84 25.3125 171.859 25.3086C171.887 25.2969 171.924 25.2832 171.971 25.2676C172.018 25.248 172.064 25.2285 172.111 25.209C172.162 25.1895 172.205 25.1719 172.24 25.1562C172.279 25.1406 172.303 25.1309 172.311 25.127C172.385 25.0801 172.443 25.0254 172.486 24.9629C172.529 24.8965 172.559 24.8262 172.574 24.752C172.594 24.6738 172.605 24.5957 172.609 24.5176C172.613 24.4395 172.615 24.3633 172.615 24.2891V24.1367C172.611 24.1328 172.607 24.123 172.604 24.1074C172.6 24.0918 172.596 24.0742 172.592 24.0547C172.588 24.0352 172.584 24.0176 172.58 24.002C172.576 23.9824 172.574 23.9688 172.574 23.9609V23.5684V23.1523C172.594 23.1211 172.605 23.0879 172.609 23.0527C172.617 23.0176 172.621 22.9824 172.621 22.9473C172.621 22.9121 172.619 22.8809 172.615 22.8535C172.615 22.8223 172.615 22.7969 172.615 22.7773C172.615 22.6094 172.607 22.4414 172.592 22.2734C172.576 22.1055 172.553 21.9414 172.521 21.7812C172.521 21.7734 172.52 21.7656 172.516 21.7578C172.512 21.7461 172.508 21.7363 172.504 21.7285L172.492 21.6934C172.473 21.6777 172.447 21.6543 172.416 21.623C172.385 21.5918 172.352 21.5605 172.316 21.5293C172.285 21.4941 172.254 21.4629 172.223 21.4355C172.195 21.4043 172.176 21.3809 172.164 21.3652C172.152 21.3652 172.139 21.3594 172.123 21.3477L172.088 21.3242C172.08 21.3242 172.068 21.3184 172.053 21.3066C172.041 21.2949 172.027 21.2812 172.012 21.2656C171.996 21.25 171.98 21.2363 171.965 21.2246C171.953 21.209 171.945 21.1992 171.941 21.1953C171.93 21.1875 171.912 21.1777 171.889 21.166C171.865 21.1543 171.838 21.1426 171.807 21.1309C171.779 21.1152 171.752 21.1016 171.725 21.0898C171.701 21.0781 171.684 21.0684 171.672 21.0605C171.617 21.041 171.566 21.0312 171.52 21.0312C171.477 21.0273 171.428 21.0254 171.373 21.0254ZM170.424 25.9297C170.334 25.8477 170.24 25.7715 170.143 25.7012C170.045 25.627 169.945 25.5547 169.844 25.4844C169.84 25.4844 169.83 25.4805 169.814 25.4727C169.803 25.4648 169.789 25.4551 169.773 25.4434C169.758 25.4316 169.744 25.4199 169.732 25.4082C169.721 25.3965 169.715 25.3867 169.715 25.3789C169.707 25.3789 169.691 25.3652 169.668 25.3379C169.645 25.3066 169.617 25.2734 169.586 25.2383C169.559 25.1992 169.531 25.1621 169.504 25.127C169.48 25.0918 169.463 25.0645 169.451 25.0449C169.396 24.9668 169.365 24.877 169.357 24.7754C169.35 24.6738 169.334 24.582 169.311 24.5C169.307 24.4961 169.301 24.4863 169.293 24.4707C169.285 24.4512 169.275 24.4316 169.264 24.4121C169.256 24.3887 169.248 24.3691 169.24 24.3535C169.232 24.334 169.229 24.3223 169.229 24.3184C169.217 24.3027 169.203 24.2812 169.188 24.2539C169.172 24.2227 169.164 24.2031 169.164 24.1953C169.164 24.1836 169.162 24.1582 169.158 24.1191C169.154 24.0801 169.15 24.0391 169.146 23.9961C169.146 23.9492 169.145 23.9082 169.141 23.873C169.137 23.834 169.135 23.8105 169.135 23.8027C169.131 23.7949 169.127 23.7812 169.123 23.7617C169.123 23.7422 169.121 23.7227 169.117 23.7031C169.117 23.6797 169.117 23.6602 169.117 23.6445C169.117 23.625 169.117 23.6133 169.117 23.6094V23.5391V23.4746C169.117 23.459 169.117 23.4355 169.117 23.4043C169.121 23.3691 169.127 23.3496 169.135 23.3457V23.2402C169.135 23.2246 169.137 23.1953 169.141 23.1523C169.145 23.1094 169.146 23.0645 169.146 23.0176C169.15 22.9707 169.154 22.9277 169.158 22.8887C169.162 22.8457 169.164 22.8184 169.164 22.8066C169.195 22.6465 169.23 22.4902 169.27 22.3379C169.309 22.1855 169.359 22.0391 169.422 21.8984C169.484 21.7578 169.561 21.625 169.65 21.5C169.74 21.375 169.852 21.2598 169.984 21.1543C170.023 21.1191 170.064 21.0859 170.107 21.0547C170.15 21.0195 170.197 20.9883 170.248 20.9609C170.271 20.957 170.293 20.9531 170.312 20.9492C170.328 20.9453 170.342 20.9414 170.354 20.9375C170.369 20.9336 170.379 20.9316 170.383 20.9316C170.387 20.9238 170.396 20.9102 170.412 20.8906C170.432 20.8711 170.449 20.8516 170.465 20.832C170.484 20.8086 170.502 20.7891 170.518 20.7734C170.537 20.7539 170.549 20.7422 170.553 20.7383C170.6 20.707 170.66 20.6836 170.734 20.668C170.812 20.6484 170.895 20.6348 170.98 20.627C171.066 20.6191 171.148 20.6152 171.227 20.6152C171.309 20.6113 171.375 20.6094 171.426 20.6094C171.578 20.6094 171.729 20.6172 171.877 20.6328C172.029 20.6484 172.188 20.6562 172.352 20.6562H172.521C172.553 20.6445 172.576 20.623 172.592 20.5918C172.611 20.5605 172.625 20.5273 172.633 20.4922C172.641 20.457 172.645 20.4219 172.645 20.3867C172.648 20.3516 172.65 20.3242 172.65 20.3047V19.6367C172.65 19.6289 172.652 19.6133 172.656 19.5898C172.664 19.5664 172.672 19.543 172.68 19.5195C172.691 19.4922 172.699 19.4688 172.703 19.4492C172.711 19.4258 172.715 19.4102 172.715 19.4023V19.1973V18.9629C172.707 18.9355 172.699 18.8887 172.691 18.8223C172.688 18.752 172.682 18.6797 172.674 18.6055C172.67 18.5312 172.666 18.4609 172.662 18.3945C172.658 18.3281 172.654 18.2812 172.65 18.2539C172.646 18.2422 172.635 18.2266 172.615 18.207C172.596 18.1836 172.574 18.1602 172.551 18.1367C172.527 18.1133 172.504 18.0918 172.48 18.0723C172.457 18.0488 172.438 18.0312 172.422 18.0195C172.395 17.9844 172.352 17.9648 172.293 17.9609C172.238 17.9531 172.195 17.9473 172.164 17.9434C172.152 17.9355 172.127 17.9219 172.088 17.9023C172.049 17.8828 172.008 17.8633 171.965 17.8438C171.922 17.8242 171.879 17.8066 171.836 17.791C171.797 17.7754 171.771 17.7656 171.76 17.7617V17.7266C171.76 17.6914 171.787 17.6523 171.842 17.6094C171.896 17.5625 171.947 17.5352 171.994 17.5273H172.164C172.172 17.5273 172.186 17.5215 172.205 17.5098C172.229 17.4941 172.246 17.4863 172.258 17.4863H172.387C172.535 17.4707 172.691 17.4453 172.855 17.4102C173.02 17.3711 173.178 17.3379 173.33 17.3105C173.338 17.3105 173.352 17.3047 173.371 17.293C173.391 17.2773 173.404 17.2676 173.412 17.2637H173.441H173.465C173.465 17.2676 173.477 17.2754 173.5 17.2871C173.527 17.2949 173.549 17.3027 173.564 17.3105C173.596 17.3301 173.629 17.3535 173.664 17.3809C173.699 17.4043 173.721 17.4395 173.729 17.4863V17.7617C173.729 17.7617 173.73 17.7734 173.734 17.7969C173.738 17.8164 173.742 17.8398 173.746 17.8672C173.754 17.8906 173.76 17.9141 173.764 17.9375C173.771 17.9609 173.775 17.9766 173.775 17.9844V18.3066V18.6113C173.771 18.6152 173.764 18.627 173.752 18.6465C173.744 18.6621 173.734 18.6797 173.723 18.6992C173.711 18.7148 173.701 18.7324 173.693 18.752C173.686 18.7676 173.68 18.7773 173.676 18.7812V18.8047C173.676 18.8555 173.684 18.9004 173.699 18.9395C173.719 18.9785 173.729 19.0215 173.729 19.0684V19.1504C173.729 19.1582 173.727 19.1816 173.723 19.2207C173.719 19.2598 173.713 19.3027 173.705 19.3496C173.701 19.3965 173.695 19.4395 173.688 19.4785C173.684 19.5176 173.68 19.543 173.676 19.5547C173.676 19.5703 173.676 19.6055 173.676 19.6602C173.68 19.7109 173.682 19.7734 173.682 19.8477C173.682 19.918 173.682 19.9941 173.682 20.0762C173.686 20.1582 173.688 20.2363 173.688 20.3105C173.688 20.3887 173.686 20.4551 173.682 20.5098C173.678 20.5645 173.676 20.5996 173.676 20.6152C173.676 20.6309 173.672 20.6719 173.664 20.7383C173.656 20.8008 173.646 20.8711 173.635 20.9492C173.627 21.0234 173.619 21.0938 173.611 21.1602C173.604 21.2227 173.598 21.2617 173.594 21.2773V21.3594V21.4297C173.598 21.4414 173.604 21.4648 173.611 21.5C173.619 21.5352 173.627 21.5742 173.635 21.6172C173.643 21.6562 173.65 21.6953 173.658 21.7344C173.666 21.7734 173.672 21.8008 173.676 21.8164V23.1113C173.676 23.127 173.668 23.1523 173.652 23.1875C173.641 23.2227 173.635 23.2441 173.635 23.252V23.293V23.3457C173.635 23.3613 173.641 23.3906 173.652 23.4336C173.668 23.4766 173.676 23.5 173.676 23.5039V24.9863C173.676 25.0762 173.709 25.1543 173.775 25.2207C173.842 25.2871 173.914 25.3301 173.992 25.3496C174.027 25.3574 174.061 25.3613 174.092 25.3613C174.123 25.3613 174.16 25.3613 174.203 25.3613C174.266 25.3613 174.324 25.3711 174.379 25.3906C174.438 25.4062 174.486 25.4531 174.525 25.5312C174.521 25.543 174.502 25.5645 174.467 25.5957C174.432 25.627 174.412 25.6504 174.408 25.666C174.377 25.6855 174.34 25.7109 174.297 25.7422C174.254 25.7734 174.23 25.791 174.227 25.7949C174.215 25.7988 174.188 25.8027 174.145 25.8066C174.102 25.8105 174.053 25.8145 173.998 25.8184C173.947 25.8223 173.9 25.8262 173.857 25.8301C173.814 25.834 173.787 25.8359 173.775 25.8359C173.717 25.8438 173.664 25.8594 173.617 25.8828C173.574 25.9023 173.529 25.9238 173.482 25.9473C173.439 25.9668 173.391 25.9844 173.336 26C173.285 26.0195 173.223 26.0293 173.148 26.0293C173.062 26.0293 172.996 26.0137 172.949 25.9824C172.902 25.9512 172.863 25.9121 172.832 25.8652C172.805 25.8145 172.783 25.7617 172.768 25.707C172.752 25.6484 172.736 25.5957 172.721 25.5488C172.705 25.498 172.684 25.457 172.656 25.4258C172.629 25.3945 172.59 25.3789 172.539 25.3789H172.492C172.293 25.6133 172.082 25.7852 171.859 25.8945C171.637 26.0039 171.375 26.0586 171.074 26.0586H171.039C171.02 26.0508 170.98 26.041 170.922 26.0293C170.863 26.0176 170.801 26.0059 170.734 25.9941C170.668 25.9785 170.605 25.9648 170.547 25.9531C170.488 25.9414 170.447 25.9336 170.424 25.9297ZM175.973 22.127C175.973 22.1504 175.982 22.1738 176.002 22.1973C176.025 22.2207 176.051 22.2441 176.078 22.2676C176.109 22.2871 176.139 22.3047 176.166 22.3203C176.197 22.332 176.223 22.3418 176.242 22.3496H176.852H177.449C177.48 22.3457 177.533 22.3398 177.607 22.332C177.686 22.3242 177.766 22.3164 177.848 22.3086C177.934 22.2969 178.014 22.2852 178.088 22.2734C178.166 22.2617 178.221 22.25 178.252 22.2383C178.26 22.2305 178.27 22.2129 178.281 22.1855C178.297 22.1543 178.305 22.1348 178.305 22.127V22.0742V22.0273C178.305 22.0156 178.303 21.9941 178.299 21.9629C178.295 21.9277 178.289 21.8926 178.281 21.8574C178.277 21.8184 178.271 21.7812 178.264 21.7461C178.26 21.7109 178.256 21.6855 178.252 21.6699C178.213 21.6426 178.18 21.6094 178.152 21.5703C178.125 21.5312 178.096 21.4941 178.064 21.459C178.037 21.4199 178.006 21.3848 177.971 21.3535C177.939 21.3223 177.9 21.2969 177.854 21.2773C177.826 21.2656 177.789 21.25 177.742 21.2305C177.699 21.207 177.656 21.1855 177.613 21.166C177.57 21.1465 177.533 21.1289 177.502 21.1133C177.471 21.0977 177.453 21.0879 177.449 21.084H177.408H177.361C177.334 21.0879 177.299 21.0938 177.256 21.1016C177.213 21.1094 177.17 21.1172 177.127 21.125C177.084 21.1289 177.047 21.1328 177.016 21.1367C176.984 21.1406 176.967 21.1426 176.963 21.1426C176.951 21.1426 176.932 21.1504 176.904 21.166C176.881 21.1777 176.854 21.1914 176.822 21.207C176.795 21.2227 176.768 21.2383 176.74 21.2539C176.717 21.2656 176.701 21.2734 176.693 21.2773C176.627 21.3008 176.562 21.3184 176.5 21.3301C176.441 21.3418 176.391 21.3809 176.348 21.4473C176.34 21.459 176.322 21.4883 176.295 21.5352C176.268 21.582 176.25 21.6113 176.242 21.623C176.219 21.666 176.191 21.707 176.16 21.7461C176.129 21.7812 176.1 21.8184 176.072 21.8574C176.045 21.8926 176.021 21.9336 176.002 21.9805C175.982 22.0234 175.973 22.0723 175.973 22.127ZM175.088 23.5566V23.4453C175.092 23.4258 175.096 23.3887 175.1 23.334C175.107 23.2793 175.111 23.2227 175.111 23.1641C175.115 23.1016 175.119 23.043 175.123 22.9883C175.127 22.9336 175.133 22.8965 175.141 22.877C175.145 22.8066 175.154 22.7285 175.17 22.6426C175.189 22.5527 175.211 22.4629 175.234 22.373C175.262 22.2832 175.293 22.1973 175.328 22.1152C175.363 22.0293 175.402 21.9551 175.445 21.8926C175.449 21.8887 175.457 21.8809 175.469 21.8691C175.484 21.8535 175.5 21.8398 175.516 21.8281C175.531 21.8125 175.545 21.7988 175.557 21.7871C175.572 21.7754 175.582 21.7676 175.586 21.7637C175.59 21.7598 175.594 21.748 175.598 21.7285C175.605 21.709 175.613 21.6895 175.621 21.6699C175.629 21.6504 175.635 21.6328 175.639 21.6172C175.646 21.5977 175.652 21.5859 175.656 21.582C175.723 21.4688 175.805 21.375 175.902 21.3008C176 21.2266 176.1 21.1543 176.201 21.084C176.271 21.041 176.336 21.002 176.395 20.9668C176.457 20.9277 176.518 20.8945 176.576 20.8672C176.639 20.8359 176.703 20.8086 176.77 20.7852C176.84 20.7617 176.918 20.7422 177.004 20.7266C177.012 20.7266 177.043 20.7246 177.098 20.7207C177.156 20.7168 177.223 20.7148 177.297 20.7148C177.371 20.7109 177.447 20.707 177.525 20.7031C177.604 20.6992 177.666 20.6973 177.713 20.6973H177.766H177.818C177.947 20.7285 178.068 20.7656 178.182 20.8086C178.299 20.8477 178.406 20.8984 178.504 20.9609C178.605 21.0234 178.697 21.0996 178.779 21.1895C178.865 21.2754 178.943 21.3789 179.014 21.5C179.018 21.5078 179.023 21.5312 179.031 21.5703C179.039 21.6055 179.047 21.623 179.055 21.623C179.078 21.6816 179.105 21.7344 179.137 21.7812C179.172 21.8281 179.203 21.875 179.23 21.9219C179.262 21.9648 179.287 22.0117 179.307 22.0625C179.326 22.1094 179.336 22.1641 179.336 22.2266C179.336 22.3008 179.305 22.373 179.242 22.4434C179.184 22.5098 179.137 22.5625 179.102 22.6016C179.078 22.6094 179.035 22.6191 178.973 22.6309C178.914 22.6426 178.848 22.6543 178.773 22.666C178.703 22.6777 178.631 22.6875 178.557 22.6953C178.486 22.7031 178.428 22.707 178.381 22.707C178.365 22.707 178.33 22.707 178.275 22.707C178.225 22.7031 178.162 22.6992 178.088 22.6953C178.018 22.6914 177.941 22.6895 177.859 22.6895C177.777 22.6855 177.699 22.6836 177.625 22.6836C177.547 22.6836 177.479 22.6875 177.42 22.6953C177.365 22.7031 177.328 22.707 177.309 22.707C177.305 22.707 177.287 22.709 177.256 22.7129C177.229 22.7168 177.197 22.7227 177.162 22.7305C177.127 22.7344 177.094 22.7383 177.062 22.7422C177.031 22.7461 177.012 22.748 177.004 22.748C176.961 22.752 176.898 22.7539 176.816 22.7539C176.734 22.7539 176.643 22.7539 176.541 22.7539C176.439 22.7539 176.344 22.7539 176.254 22.7539C176.168 22.7539 176.107 22.752 176.072 22.748C176.041 22.752 176.02 22.7637 176.008 22.7832C175.996 22.7988 175.986 22.8164 175.979 22.8359C175.979 22.8359 175.977 22.8457 175.973 22.8652C175.973 22.8809 175.973 22.9004 175.973 22.9238C175.973 22.9473 175.973 22.9727 175.973 23C175.973 23.0234 175.973 23.043 175.973 23.0586C175.973 23.0781 175.973 23.1074 175.973 23.1465C175.973 23.1855 175.973 23.2246 175.973 23.2637C175.973 23.2988 175.973 23.332 175.973 23.3633C175.977 23.3945 175.979 23.4121 175.979 23.416C175.982 23.498 176.014 23.6094 176.072 23.75C176.131 23.8867 176.199 24.0254 176.277 24.166C176.359 24.3066 176.445 24.4375 176.535 24.5586C176.629 24.6758 176.715 24.7539 176.793 24.793C176.809 24.8047 176.846 24.8262 176.904 24.8574C176.963 24.8887 177.025 24.9219 177.092 24.957C177.158 24.9883 177.221 25.0195 177.279 25.0508C177.342 25.0781 177.385 25.0977 177.408 25.1094C177.428 25.1094 177.441 25.1074 177.449 25.1035C177.461 25.0996 177.475 25.0977 177.49 25.0977C177.568 25.0977 177.641 25.1074 177.707 25.127C177.777 25.1465 177.852 25.1562 177.93 25.1562H178.018C178.037 25.1562 178.059 25.1543 178.082 25.1504L178.668 24.8457C178.684 24.7988 178.703 24.752 178.727 24.7051C178.75 24.6543 178.777 24.6094 178.809 24.5703C178.844 24.5312 178.883 24.5 178.926 24.4766C178.973 24.4531 179.029 24.4414 179.096 24.4414H179.102C179.109 24.4492 179.119 24.4629 179.131 24.4824C179.146 24.502 179.154 24.5137 179.154 24.5176C179.154 24.5254 179.146 24.5469 179.131 24.582C179.119 24.6172 179.109 24.6445 179.102 24.6641C179.059 24.7773 179.014 24.8848 178.967 24.9863C178.92 25.0879 178.861 25.1895 178.791 25.291C178.783 25.2988 178.77 25.3125 178.75 25.332C178.73 25.3516 178.709 25.373 178.686 25.3965C178.662 25.4199 178.639 25.4434 178.615 25.4668C178.596 25.4863 178.58 25.502 178.568 25.5137C178.561 25.5176 178.545 25.5254 178.521 25.5371C178.502 25.5488 178.479 25.5625 178.451 25.5781C178.428 25.5898 178.406 25.6035 178.387 25.6191C178.367 25.6309 178.355 25.6387 178.352 25.6426C178.262 25.6973 178.182 25.7461 178.111 25.7891C178.045 25.832 177.977 25.8691 177.906 25.9004C177.84 25.9316 177.768 25.957 177.689 25.9766C177.615 25.9922 177.529 26 177.432 26C177.174 26 176.928 25.9707 176.693 25.9121C176.459 25.8496 176.246 25.7578 176.055 25.6367C175.863 25.5117 175.699 25.3555 175.562 25.168C175.43 24.9766 175.336 24.75 175.281 24.4883C175.266 24.4453 175.248 24.3809 175.229 24.2949C175.209 24.209 175.189 24.1211 175.17 24.0312C175.15 23.9414 175.133 23.8594 175.117 23.7852C175.102 23.707 175.092 23.6582 175.088 23.6387V23.5566ZM184.604 26C184.572 26 184.527 26 184.469 26C184.414 26 184.357 26 184.299 26C184.24 26.0039 184.186 26.0059 184.135 26.0059C184.088 26.0098 184.059 26.0137 184.047 26.0176C184.02 26.0215 183.992 26.0254 183.965 26.0293C183.941 26.0332 183.918 26.0371 183.895 26.041C183.871 26.0449 183.852 26.0488 183.836 26.0527C183.828 26.0527 183.814 26.0547 183.795 26.0586C183.779 26.0625 183.762 26.0664 183.742 26.0703C183.723 26.0781 183.705 26.084 183.689 26.0879C183.674 26.0918 183.664 26.0938 183.66 26.0938H183.309C183.262 26.0938 183.219 26.0957 183.18 26.0996C183.145 26.1074 183.109 26.1113 183.074 26.1113C182.977 26.1113 182.885 26.0957 182.799 26.0645C182.717 26.0371 182.643 25.9746 182.576 25.877C182.604 25.8066 182.641 25.7598 182.688 25.7363C182.738 25.7129 182.797 25.6855 182.863 25.6543C182.867 25.6504 182.881 25.6426 182.904 25.6309C182.932 25.6152 182.959 25.5996 182.986 25.584C183.018 25.5684 183.045 25.5547 183.068 25.543C183.096 25.5312 183.111 25.5254 183.115 25.5254H183.244C183.256 25.5254 183.273 25.5195 183.297 25.5078C183.324 25.4922 183.342 25.4844 183.35 25.4844C183.365 25.4766 183.395 25.4688 183.438 25.4609C183.484 25.4492 183.533 25.4375 183.584 25.4258C183.639 25.4141 183.689 25.4043 183.736 25.3965C183.783 25.3887 183.816 25.3828 183.836 25.3789C183.934 25.3086 183.996 25.2324 184.023 25.1504C184.051 25.0684 184.08 24.9668 184.111 24.8457V23.7793C184.111 23.7676 184.113 23.752 184.117 23.7324C184.121 23.709 184.125 23.6855 184.129 23.6621C184.137 23.6348 184.143 23.6113 184.146 23.5918C184.15 23.5684 184.154 23.5508 184.158 23.5391V21.957C184.166 21.707 184.172 21.5039 184.176 21.3477C184.184 21.1875 184.189 21.0605 184.193 20.9668C184.201 20.8691 184.205 20.7949 184.205 20.7441C184.209 20.6934 184.211 20.6504 184.211 20.6152C184.211 20.5371 184.209 20.459 184.205 20.3809C184.201 20.2988 184.199 20.25 184.199 20.2344C184.211 20.0469 184.229 19.873 184.252 19.7129C184.279 19.5488 184.293 19.373 184.293 19.1855C184.293 19.1035 184.291 19.0293 184.287 18.9629C184.287 18.8926 184.283 18.8281 184.275 18.7695C184.268 18.707 184.254 18.6445 184.234 18.582C184.219 18.5195 184.193 18.4512 184.158 18.377C184.146 18.3613 184.123 18.3457 184.088 18.3301C184.057 18.3105 184.021 18.293 183.982 18.2773C183.947 18.2578 183.912 18.2422 183.877 18.2305C183.846 18.2148 183.822 18.207 183.807 18.207C183.795 18.2031 183.771 18.1992 183.736 18.1953C183.701 18.1875 183.662 18.1816 183.619 18.1777C183.58 18.1738 183.541 18.1699 183.502 18.166C183.467 18.1621 183.445 18.1582 183.438 18.1543C183.434 18.1543 183.412 18.1504 183.373 18.1426C183.338 18.1309 183.316 18.1211 183.309 18.1133H183.098C183.039 18.1133 183 18.1113 182.98 18.1074C182.961 18.1035 182.928 18.0918 182.881 18.0723C182.826 18.0527 182.777 18.0254 182.734 17.9902C182.691 17.9512 182.67 17.9141 182.67 17.8789V17.8086C182.713 17.7266 182.766 17.6758 182.828 17.6562C182.891 17.6367 182.955 17.627 183.021 17.627C183.053 17.627 183.08 17.6289 183.104 17.6328C183.127 17.6367 183.15 17.6387 183.174 17.6387C183.201 17.6387 183.232 17.6309 183.268 17.6152C183.303 17.5996 183.33 17.5859 183.35 17.5742H183.408H183.473C183.492 17.582 183.535 17.5898 183.602 17.5977C183.668 17.6055 183.738 17.6152 183.812 17.627C183.891 17.6348 183.963 17.6426 184.029 17.6504C184.096 17.6543 184.139 17.6562 184.158 17.6562C184.201 17.6641 184.279 17.6738 184.393 17.6855C184.51 17.6934 184.631 17.7031 184.756 17.7148C184.885 17.7227 185.006 17.7305 185.119 17.7383C185.232 17.7461 185.311 17.75 185.354 17.75C185.541 17.7031 185.723 17.6758 185.898 17.668C186.078 17.6602 186.256 17.6562 186.432 17.6562H186.936C186.979 17.6875 187.004 17.7285 187.012 17.7793C187.023 17.8262 187.029 17.8691 187.029 17.9082C187.029 17.9707 187.014 18.0176 186.982 18.0488C186.955 18.0801 186.918 18.1035 186.871 18.1191C186.828 18.1309 186.781 18.1387 186.73 18.1426C186.68 18.1465 186.631 18.1504 186.584 18.1543C186.557 18.1543 186.508 18.1602 186.438 18.1719C186.371 18.1836 186.324 18.1953 186.297 18.207C186.293 18.207 186.283 18.2109 186.268 18.2188C186.252 18.2266 186.234 18.2363 186.215 18.248C186.195 18.2559 186.176 18.2656 186.156 18.2773C186.141 18.2852 186.131 18.291 186.127 18.2949C186.123 18.2949 186.111 18.2969 186.092 18.3008C186.076 18.3047 186.059 18.3086 186.039 18.3125C186.02 18.3164 186 18.3223 185.98 18.3301C185.961 18.3379 185.949 18.3438 185.945 18.3477C185.938 18.3477 185.926 18.3496 185.91 18.3535C185.898 18.3574 185.885 18.3613 185.869 18.3652L185.811 18.377C185.799 18.3887 185.783 18.4043 185.764 18.4238C185.744 18.4395 185.725 18.457 185.705 18.4766C185.689 18.4961 185.674 18.5137 185.658 18.5293C185.643 18.5449 185.633 18.5547 185.629 18.5586C185.629 18.5664 185.627 18.582 185.623 18.6055C185.619 18.6289 185.613 18.6562 185.605 18.6875C185.602 18.7148 185.598 18.7422 185.594 18.7695C185.59 18.793 185.588 18.8105 185.588 18.8223C185.584 18.8691 185.58 18.9512 185.576 19.0684C185.576 19.1855 185.574 19.3086 185.57 19.4375C185.57 19.5664 185.57 19.6875 185.57 19.8008C185.57 19.9141 185.57 19.9941 185.57 20.041L185.559 20.1816V21.0723C185.551 21.3613 185.543 21.5898 185.535 21.7578C185.531 21.9219 185.525 22.0488 185.518 22.1387C185.514 22.2285 185.51 22.293 185.506 22.332C185.502 22.3672 185.5 22.3965 185.5 22.4199C185.488 22.5176 185.48 22.6152 185.477 22.7129C185.473 22.8105 185.467 22.9102 185.459 23.0117C185.455 23.0156 185.451 23.0293 185.447 23.0527C185.443 23.0723 185.439 23.0957 185.436 23.123C185.432 23.1465 185.428 23.1699 185.424 23.1934C185.42 23.2129 185.418 23.2266 185.418 23.2344C185.418 23.2539 185.42 23.2988 185.424 23.3691C185.428 23.4355 185.432 23.5098 185.436 23.5918C185.443 23.6699 185.449 23.7441 185.453 23.8145C185.457 23.8848 185.459 23.9277 185.459 23.9434C185.459 23.9629 185.457 24.0039 185.453 24.0664C185.449 24.1289 185.443 24.1953 185.436 24.2656C185.432 24.3359 185.428 24.4023 185.424 24.4648C185.42 24.5273 185.418 24.5664 185.418 24.582V24.8457C185.418 24.9043 185.418 24.9668 185.418 25.0332C185.422 25.0996 185.432 25.1641 185.447 25.2266C185.467 25.2852 185.494 25.3379 185.529 25.3848C185.564 25.4316 185.615 25.4648 185.682 25.4844C185.693 25.4883 185.717 25.4922 185.752 25.4961C185.791 25.5 185.832 25.5039 185.875 25.5078C185.922 25.5078 185.965 25.5098 186.004 25.5137C186.047 25.5176 186.074 25.5215 186.086 25.5254C186.105 25.5254 186.141 25.5332 186.191 25.5488C186.242 25.5645 186.295 25.582 186.35 25.6016C186.408 25.6172 186.463 25.6348 186.514 25.6543C186.564 25.6699 186.602 25.6836 186.625 25.6953C186.648 25.707 186.662 25.7246 186.666 25.748C186.67 25.7676 186.672 25.7871 186.672 25.8066C186.672 25.8613 186.658 25.9102 186.631 25.9531C186.604 25.9922 186.57 26.0254 186.531 26.0527C186.492 26.084 186.447 26.1113 186.396 26.1348C186.35 26.1582 186.307 26.1777 186.268 26.1934H186.215C186.188 26.1895 186.115 26.1777 185.998 26.1582C185.885 26.1426 185.762 26.123 185.629 26.0996C185.496 26.0801 185.373 26.0605 185.26 26.041C185.146 26.0254 185.076 26.0176 185.049 26.0176C185.049 26.0137 185.029 26.0098 184.99 26.0059C184.955 26.0059 184.912 26.0039 184.861 26C184.814 26 184.766 26 184.715 26C184.668 26 184.631 26 184.604 26ZM187.686 25.918C187.686 25.875 187.688 25.834 187.691 25.7949C187.699 25.7559 187.719 25.7227 187.75 25.6953C187.766 25.6953 187.797 25.6934 187.844 25.6895C187.891 25.6816 187.938 25.6758 187.984 25.6719C188.035 25.6641 188.082 25.6562 188.125 25.6484C188.172 25.6406 188.205 25.6367 188.225 25.6367C188.314 25.625 188.377 25.5879 188.412 25.5254C188.451 25.4629 188.477 25.3887 188.488 25.3027C188.5 25.2168 188.508 25.1289 188.512 25.0391C188.516 24.9453 188.531 24.8633 188.559 24.793C188.562 24.7422 188.564 24.6562 188.564 24.5352C188.568 24.4102 188.572 24.2793 188.576 24.1426C188.58 24.0059 188.582 23.877 188.582 23.7559C188.586 23.6309 188.588 23.5449 188.588 23.498C188.588 23.4863 188.588 23.457 188.588 23.4102C188.592 23.3594 188.594 23.3027 188.594 23.2402C188.594 23.1777 188.594 23.1152 188.594 23.0527C188.598 22.9863 188.6 22.9316 188.6 22.8887C188.6 22.8574 188.598 22.8145 188.594 22.7598C188.594 22.7012 188.594 22.6445 188.594 22.5898C188.594 22.5352 188.592 22.4863 188.588 22.4434C188.588 22.3965 188.588 22.3691 188.588 22.3613C188.588 22.3496 188.586 22.3262 188.582 22.291C188.582 22.2559 188.58 22.2188 188.576 22.1797C188.572 22.1406 188.568 22.1055 188.564 22.0742C188.564 22.043 188.562 22.0234 188.559 22.0156C188.555 22 188.539 21.9785 188.512 21.9512C188.484 21.9238 188.463 21.9023 188.447 21.8867C188.439 21.8555 188.414 21.8184 188.371 21.7754C188.328 21.7285 188.297 21.7012 188.277 21.6934C188.238 21.666 188.193 21.6523 188.143 21.6523C188.092 21.6484 188.041 21.6445 187.99 21.6406C187.939 21.6367 187.895 21.625 187.855 21.6055C187.816 21.5859 187.791 21.543 187.779 21.4766C187.779 21.4688 187.785 21.4551 187.797 21.4355C187.812 21.4121 187.824 21.3965 187.832 21.3887C187.836 21.377 187.846 21.3633 187.861 21.3477C187.881 21.3281 187.9 21.3086 187.92 21.2891C187.939 21.2695 187.957 21.2539 187.973 21.2422C187.992 21.2266 188.006 21.2168 188.014 21.2129C188.018 21.2051 188.039 21.1875 188.078 21.1602C188.121 21.1328 188.172 21.1035 188.23 21.0723C188.289 21.0371 188.348 21.0039 188.406 20.9727C188.469 20.9375 188.52 20.9102 188.559 20.8906C188.621 20.8555 188.691 20.8281 188.77 20.8086C188.848 20.7852 188.924 20.7559 188.998 20.7207C189.064 20.6777 189.119 20.6367 189.162 20.5977C189.209 20.5586 189.271 20.5391 189.35 20.5391C189.424 20.5391 189.479 20.5684 189.514 20.627C189.549 20.6816 189.574 20.748 189.59 20.8262C189.605 20.9004 189.615 20.9785 189.619 21.0605C189.623 21.1387 189.629 21.2031 189.637 21.2539C189.637 21.2695 189.637 21.2969 189.637 21.3359C189.641 21.3711 189.643 21.4102 189.643 21.4531C189.646 21.4961 189.65 21.5371 189.654 21.5762C189.658 21.6152 189.662 21.6445 189.666 21.6641C189.686 21.6953 189.705 21.7188 189.725 21.7344C189.744 21.7461 189.771 21.752 189.807 21.752H189.859C189.867 21.7402 189.881 21.7246 189.9 21.7051C189.92 21.6816 189.941 21.6582 189.965 21.6348C189.988 21.6113 190.01 21.5898 190.029 21.5703C190.049 21.5469 190.062 21.5293 190.07 21.5176C190.07 21.5137 190.078 21.5 190.094 21.4766C190.113 21.4531 190.123 21.4375 190.123 21.4297C190.158 21.375 190.199 21.3398 190.246 21.3242C190.297 21.3047 190.344 21.2676 190.387 21.2129C190.477 21.0918 190.572 20.9941 190.674 20.9199C190.775 20.8418 190.893 20.7578 191.025 20.668C191.111 20.6016 191.205 20.5645 191.307 20.5566C191.408 20.5449 191.516 20.5391 191.629 20.5391C191.723 20.5391 191.807 20.5469 191.881 20.5625C191.959 20.5781 192.031 20.6016 192.098 20.6328C192.164 20.6602 192.229 20.6953 192.291 20.7383C192.357 20.7812 192.424 20.832 192.49 20.8906C192.568 20.9609 192.648 21.041 192.73 21.1309C192.816 21.2207 192.875 21.3203 192.906 21.4297C192.906 21.457 192.908 21.4961 192.912 21.5469C192.92 21.5938 192.928 21.6406 192.936 21.6875C192.947 21.7344 192.957 21.7773 192.965 21.8164C192.973 21.8555 192.979 21.8789 192.982 21.8867V22.332C192.982 22.3359 192.984 22.3516 192.988 22.3789C192.992 22.4023 192.996 22.4297 193 22.4609C193.008 22.4883 193.014 22.5156 193.018 22.543C193.025 22.5703 193.029 22.5879 193.029 22.5957V22.6426V22.6836C193.029 22.6953 193.025 22.7227 193.018 22.7656C193.014 22.8086 193.008 22.8555 193 22.9062C192.996 22.957 192.992 23.0059 192.988 23.0527C192.984 23.0957 192.982 23.125 192.982 23.1406V23.457V24.2539C192.982 24.2617 192.98 24.2793 192.977 24.3066C192.973 24.334 192.967 24.3633 192.959 24.3945C192.955 24.4219 192.951 24.4492 192.947 24.4766C192.943 24.5 192.941 24.5137 192.941 24.5176V25.127C192.941 25.1816 192.945 25.2461 192.953 25.3203C192.961 25.3906 192.986 25.459 193.029 25.5254C193.072 25.5176 193.113 25.5117 193.152 25.5078C193.195 25.5039 193.238 25.502 193.281 25.502C193.324 25.502 193.365 25.5039 193.404 25.5078C193.443 25.5117 193.48 25.5176 193.516 25.5254C193.527 25.5254 193.543 25.5391 193.562 25.5664C193.586 25.5898 193.602 25.6094 193.609 25.625C193.609 25.6328 193.611 25.6426 193.615 25.6543C193.615 25.6621 193.615 25.6699 193.615 25.6777C193.619 25.6855 193.621 25.6914 193.621 25.6953C193.621 25.7305 193.611 25.7676 193.592 25.8066C193.576 25.8418 193.555 25.875 193.527 25.9062C193.504 25.9375 193.475 25.9629 193.439 25.9824C193.408 26.002 193.377 26.0117 193.346 26.0117H193.305C193.297 26.0078 193.277 26.002 193.246 25.9941C193.215 25.9863 193.182 25.9805 193.146 25.9766C193.111 25.9727 193.076 25.9688 193.041 25.9648C193.01 25.9609 192.99 25.959 192.982 25.959C192.971 25.959 192.939 25.9609 192.889 25.9648C192.842 25.9688 192.789 25.9727 192.73 25.9766C192.672 25.9805 192.615 25.9863 192.561 25.9941C192.506 26.002 192.467 26.0078 192.443 26.0117C192.436 26.0117 192.414 26.0156 192.379 26.0234C192.344 26.0352 192.32 26.041 192.309 26.041H191.641C191.629 26.0449 191.604 26.0488 191.564 26.0527C191.525 26.0566 191.482 26.0605 191.436 26.0645C191.393 26.0684 191.352 26.0723 191.312 26.0762C191.273 26.0801 191.248 26.082 191.236 26.082H191.166C191.146 26.082 191.127 26.0703 191.107 26.0469C191.088 26.0234 191.07 25.9961 191.055 25.9648C191.039 25.9336 191.025 25.9004 191.014 25.8652C191.006 25.8301 191.002 25.8008 191.002 25.7773C191.002 25.7266 191.035 25.6895 191.102 25.666C191.172 25.6426 191.25 25.625 191.336 25.6133C191.426 25.6016 191.512 25.5918 191.594 25.584C191.68 25.5723 191.74 25.5547 191.775 25.5312C191.787 25.5234 191.801 25.5059 191.816 25.4785C191.836 25.4512 191.855 25.4219 191.875 25.3906C191.895 25.3594 191.91 25.3281 191.922 25.2969C191.938 25.2656 191.949 25.2402 191.957 25.2207C191.969 25.1855 191.977 25.1582 191.98 25.1387C191.984 25.1152 191.988 25.0957 191.992 25.0801C191.996 25.0605 191.998 25.041 191.998 25.0215C191.998 24.998 191.998 24.9688 191.998 24.9336V24.5176C191.998 24.5059 191.998 24.4746 191.998 24.4238C191.998 24.373 191.998 24.3184 191.998 24.2598C192.002 24.1973 192.004 24.1406 192.004 24.0898C192.004 24.0352 192.004 24.002 192.004 23.9902C192 23.9473 191.996 23.8809 191.992 23.791C191.992 23.7012 191.99 23.6016 191.986 23.4922C191.982 23.3789 191.979 23.2617 191.975 23.1406C191.975 23.0156 191.973 22.8984 191.969 22.7891C191.969 22.6758 191.969 22.5762 191.969 22.4902C191.969 22.4004 191.969 22.334 191.969 22.291C191.961 22.1934 191.936 22.0918 191.893 21.9863C191.854 21.8809 191.799 21.7852 191.729 21.6992C191.658 21.6094 191.578 21.5371 191.488 21.4824C191.398 21.4238 191.301 21.3926 191.195 21.3887C191.152 21.3848 191.104 21.3867 191.049 21.3945C190.994 21.4023 190.938 21.4121 190.879 21.4238C190.82 21.4355 190.764 21.4512 190.709 21.4707C190.654 21.4863 190.604 21.502 190.557 21.5176C190.533 21.5293 190.496 21.5469 190.445 21.5703C190.398 21.5938 190.352 21.6191 190.305 21.6465C190.258 21.6699 190.215 21.6914 190.176 21.7109C190.141 21.7305 190.123 21.7441 190.123 21.752C190.111 21.7598 190.088 21.7852 190.053 21.8281C190.021 21.8711 189.988 21.918 189.953 21.9688C189.922 22.0195 189.891 22.0664 189.859 22.1094C189.832 22.1523 189.814 22.1797 189.807 22.1914C189.736 22.293 189.695 22.3984 189.684 22.5078C189.676 22.6172 189.66 22.7344 189.637 22.8594C189.629 22.875 189.619 22.9062 189.607 22.9531C189.6 23 189.596 23.0332 189.596 23.0527V23.4043C189.596 23.416 189.592 23.4434 189.584 23.4863C189.576 23.5293 189.568 23.5762 189.561 23.627C189.553 23.6777 189.545 23.7266 189.537 23.7734C189.529 23.8164 189.525 23.8457 189.525 23.8613V24.459C189.525 24.5645 189.525 24.6602 189.525 24.7461C189.525 24.832 189.527 24.916 189.531 24.998C189.539 25.0762 189.547 25.1582 189.555 25.2441C189.562 25.3262 189.576 25.4199 189.596 25.5254C189.619 25.5684 189.652 25.5957 189.695 25.6074C189.742 25.6191 189.793 25.625 189.848 25.625C189.879 25.625 189.91 25.623 189.941 25.6191C189.973 25.6152 190.006 25.6133 190.041 25.6133C190.096 25.6133 190.145 25.6426 190.188 25.7012C190.23 25.7559 190.252 25.8145 190.252 25.877C190.252 25.9473 190.225 25.9941 190.17 26.0176C190.115 26.041 190.055 26.0527 189.988 26.0527C189.957 26.0527 189.928 26.0508 189.9 26.0469C189.877 26.043 189.855 26.041 189.836 26.041C189.715 26.041 189.594 26.0332 189.473 26.0176C189.352 26.0059 189.23 26 189.109 26C188.957 26 188.801 26.0059 188.641 26.0176C188.48 26.0332 188.318 26.041 188.154 26.041C188.127 26.041 188.09 26.043 188.043 26.0469C187.996 26.0547 187.953 26.0586 187.914 26.0586C187.852 26.0586 187.797 26.0488 187.75 26.0293C187.707 26.0098 187.686 25.9727 187.686 25.918ZM194.096 25.7949C194.096 25.7715 194.104 25.7461 194.119 25.7188C194.135 25.6914 194.154 25.666 194.178 25.6426C194.201 25.6191 194.227 25.5996 194.254 25.584C194.281 25.5645 194.307 25.5547 194.33 25.5547H194.969C194.988 25.5469 195.006 25.5371 195.021 25.5254C195.037 25.5176 195.051 25.5098 195.062 25.502C195.078 25.4902 195.09 25.4805 195.098 25.4727C195.102 25.4688 195.104 25.4648 195.104 25.4609C195.107 25.4531 195.113 25.4453 195.121 25.4375C195.125 25.4297 195.131 25.4238 195.139 25.4199L195.191 25.0156V23.4277C195.191 23.2949 195.195 23.1758 195.203 23.0703C195.215 22.9648 195.225 22.8672 195.232 22.7773C195.244 22.6836 195.254 22.5938 195.262 22.5078C195.273 22.418 195.279 22.3242 195.279 22.2266V22.1562C195.279 22.1523 195.273 22.1406 195.262 22.1211C195.254 22.1016 195.244 22.082 195.232 22.0625C195.225 22.043 195.215 22.0254 195.203 22.0098C195.195 21.9902 195.191 21.9785 195.191 21.9746C195.184 21.9629 195.176 21.9414 195.168 21.9102C195.164 21.875 195.16 21.8398 195.156 21.8047C195.152 21.7656 195.148 21.7285 195.145 21.6934C195.141 21.6582 195.139 21.6309 195.139 21.6113C195.092 21.5449 195.023 21.5039 194.934 21.4883C194.844 21.4727 194.754 21.4629 194.664 21.459C194.574 21.4551 194.496 21.4453 194.43 21.4297C194.363 21.4141 194.33 21.373 194.33 21.3066C194.33 21.2441 194.367 21.1914 194.441 21.1484C194.516 21.1016 194.6 21.0605 194.693 21.0254C194.791 20.9902 194.883 20.957 194.969 20.9258C195.059 20.8906 195.115 20.8516 195.139 20.8086C195.143 20.8086 195.152 20.793 195.168 20.7617C195.176 20.7461 195.184 20.7324 195.191 20.7207V20.2754C195.191 20.2559 195.195 20.207 195.203 20.1289C195.211 20.0508 195.221 19.9902 195.232 19.9473C195.236 19.9316 195.242 19.9043 195.25 19.8652C195.258 19.8223 195.266 19.7773 195.273 19.7305C195.285 19.6836 195.295 19.6406 195.303 19.6016C195.314 19.5586 195.324 19.5293 195.332 19.5137C195.336 19.4785 195.344 19.4316 195.355 19.373C195.367 19.3145 195.381 19.2578 195.396 19.2031C195.412 19.1445 195.426 19.0938 195.438 19.0508C195.449 19.0078 195.455 18.9824 195.455 18.9746C195.459 18.9629 195.469 18.9434 195.484 18.916C195.504 18.8848 195.523 18.8516 195.543 18.8164C195.566 18.7812 195.586 18.75 195.602 18.7227C195.621 18.6953 195.633 18.6777 195.637 18.6699C195.637 18.6621 195.643 18.6387 195.654 18.5996C195.67 18.5605 195.682 18.5371 195.689 18.5293C195.846 18.2832 196.045 18.0742 196.287 17.9023C196.533 17.7305 196.797 17.6055 197.078 17.5273C197.277 17.4727 197.482 17.4238 197.693 17.3809C197.904 17.334 198.113 17.3105 198.32 17.3105H198.426C198.531 17.3223 198.631 17.3418 198.725 17.3691C198.822 17.3965 198.928 17.4258 199.041 17.457C199.084 17.4609 199.141 17.4727 199.211 17.4922C199.281 17.5078 199.33 17.543 199.357 17.5977C199.369 17.6133 199.383 17.6387 199.398 17.6738C199.418 17.709 199.438 17.7461 199.457 17.7852C199.477 17.8242 199.492 17.8594 199.504 17.8906C199.52 17.9219 199.527 17.9395 199.527 17.9434C199.527 17.9512 199.529 17.9609 199.533 17.9727C199.533 17.9805 199.533 17.9902 199.533 18.002C199.537 18.0098 199.539 18.0156 199.539 18.0195C199.539 18.1289 199.516 18.2207 199.469 18.2949C199.426 18.3652 199.367 18.4219 199.293 18.4648C199.219 18.5039 199.137 18.5312 199.047 18.5469C198.957 18.5625 198.867 18.5703 198.777 18.5703C198.766 18.5703 198.746 18.5703 198.719 18.5703C198.691 18.5664 198.662 18.5645 198.631 18.5645C198.604 18.5645 198.576 18.5645 198.549 18.5645C198.525 18.5605 198.508 18.5586 198.496 18.5586C198.379 18.5234 198.287 18.4668 198.221 18.3887C198.158 18.3105 198.096 18.2324 198.033 18.1543C197.975 18.0723 197.904 18.002 197.822 17.9434C197.74 17.8809 197.623 17.8496 197.471 17.8496C197.412 17.8496 197.363 17.8535 197.324 17.8613C197.285 17.8652 197.248 17.875 197.213 17.8906C197.178 17.9023 197.141 17.9199 197.102 17.9434C197.066 17.9668 197.023 17.9961 196.973 18.0312C196.969 18.0391 196.947 18.0547 196.908 18.0781C196.873 18.0977 196.852 18.1133 196.844 18.125C196.754 18.1953 196.678 18.2598 196.615 18.3184C196.553 18.377 196.5 18.4395 196.457 18.5059C196.418 18.5684 196.385 18.6406 196.357 18.7227C196.334 18.8008 196.316 18.8945 196.305 19.0039C196.305 19.0352 196.303 19.0762 196.299 19.127C196.295 19.1738 196.289 19.2207 196.281 19.2676C196.277 19.3145 196.273 19.3574 196.27 19.3965C196.266 19.4316 196.264 19.4531 196.264 19.4609C196.26 19.4727 196.258 19.498 196.258 19.5371C196.258 19.5762 196.258 19.6211 196.258 19.6719C196.258 19.7266 196.258 19.7852 196.258 19.8477C196.258 19.9062 196.258 19.9629 196.258 20.0176C196.262 20.0684 196.264 20.1152 196.264 20.1582C196.264 20.1973 196.264 20.2227 196.264 20.2344C196.256 20.2383 196.246 20.2656 196.234 20.3164C196.223 20.3672 196.217 20.4004 196.217 20.416V20.5566V20.7207C196.217 20.7246 196.223 20.7402 196.234 20.7676C196.246 20.791 196.256 20.8027 196.264 20.8027C196.283 20.8105 196.312 20.8203 196.352 20.832C196.395 20.8438 196.457 20.8496 196.539 20.8496H196.58C196.596 20.8496 196.633 20.8477 196.691 20.8438C196.754 20.8398 196.82 20.8359 196.891 20.832C196.965 20.8242 197.031 20.8184 197.09 20.8145C197.152 20.8105 197.191 20.8086 197.207 20.8086C197.305 20.8086 197.398 20.8145 197.488 20.8262C197.582 20.8379 197.637 20.877 197.652 20.9434V21.1016C197.652 21.1914 197.646 21.2559 197.635 21.2949C197.623 21.3301 197.604 21.3574 197.576 21.377C197.553 21.3926 197.525 21.4023 197.494 21.4062C197.467 21.418 197.436 21.4258 197.4 21.4297C197.365 21.4297 197.324 21.4336 197.277 21.4414C197.277 21.4414 197.266 21.4414 197.242 21.4414C197.223 21.4414 197.201 21.4434 197.178 21.4473C197.154 21.4473 197.131 21.4473 197.107 21.4473C197.088 21.4473 197.078 21.4473 197.078 21.4473C197.066 21.4473 197.047 21.4473 197.02 21.4473C196.992 21.4473 196.959 21.4473 196.92 21.4473C196.881 21.4434 196.84 21.4414 196.797 21.4414C196.758 21.4414 196.719 21.4414 196.68 21.4414C196.645 21.4414 196.613 21.4414 196.586 21.4414C196.562 21.4414 196.547 21.4434 196.539 21.4473C196.516 21.4473 196.486 21.4512 196.451 21.459C196.42 21.4629 196.391 21.4707 196.363 21.4824C196.336 21.4941 196.312 21.5117 196.293 21.5352C196.273 21.5547 196.264 21.5801 196.264 21.6113L196.258 23.0293C196.258 23.1777 196.256 23.3047 196.252 23.4102C196.248 23.5117 196.242 23.6055 196.234 23.6914C196.23 23.7773 196.227 23.8613 196.223 23.9434C196.219 24.0215 196.217 24.1094 196.217 24.207V24.3477V24.7109C196.217 24.7305 196.219 24.7695 196.223 24.8281C196.227 24.8867 196.23 24.9492 196.234 25.0156C196.238 25.082 196.242 25.1465 196.246 25.209C196.254 25.2676 196.26 25.3086 196.264 25.332C196.271 25.3477 196.291 25.373 196.322 25.4082C196.357 25.4434 196.379 25.4648 196.387 25.4727C196.422 25.5078 196.449 25.5254 196.469 25.5254C196.477 25.5254 196.488 25.5234 196.504 25.5195C196.52 25.5156 196.531 25.5137 196.539 25.5137C196.566 25.5137 196.59 25.5176 196.609 25.5254C196.637 25.5254 196.678 25.5293 196.732 25.5371C196.791 25.5449 196.85 25.5547 196.908 25.5664C196.971 25.5742 197.029 25.582 197.084 25.5898C197.143 25.5977 197.184 25.6035 197.207 25.6074C197.25 25.6113 197.291 25.6328 197.33 25.6719C197.369 25.7109 197.389 25.7461 197.389 25.7773V25.8301C197.389 25.8809 197.363 25.9199 197.312 25.9473C197.266 25.9746 197.209 25.9941 197.143 26.0059C197.08 26.0215 197.016 26.0312 196.949 26.0352C196.887 26.0391 196.838 26.041 196.803 26.041H196.662C196.654 26.041 196.633 26.0391 196.598 26.0352C196.566 26.0312 196.529 26.0254 196.486 26.0176C196.447 26.0137 196.41 26.0098 196.375 26.0059C196.34 26.002 196.316 26 196.305 26H195.637H194.969C194.957 26 194.928 26.002 194.881 26.0059C194.834 26.0098 194.785 26.0137 194.734 26.0176C194.688 26.0254 194.643 26.0312 194.6 26.0352C194.557 26.0391 194.531 26.041 194.523 26.041H194.441C194.406 26.041 194.367 26.0352 194.324 26.0234C194.285 26.0156 194.248 26.002 194.213 25.9824C194.182 25.9629 194.154 25.9375 194.131 25.9062C194.107 25.875 194.096 25.8379 194.096 25.7949ZM199.246 23.6973C199.246 23.9199 199.291 24.1348 199.381 24.3418C199.475 24.5449 199.596 24.7266 199.744 24.8867C199.791 24.9336 199.838 24.9863 199.885 25.0449C199.932 25.1035 199.98 25.1602 200.031 25.2148C200.086 25.2695 200.143 25.3203 200.201 25.3672C200.264 25.4141 200.33 25.4492 200.4 25.4727L200.77 25.5547H200.816H200.869C200.904 25.5508 200.953 25.5469 201.016 25.543C201.078 25.5391 201.141 25.5352 201.203 25.5312C201.266 25.5273 201.32 25.5234 201.367 25.5195C201.414 25.5156 201.441 25.5137 201.449 25.5137C201.508 25.502 201.572 25.4727 201.643 25.4258C201.717 25.3789 201.791 25.3262 201.865 25.2676C201.939 25.2051 202.01 25.1426 202.076 25.0801C202.146 25.0137 202.207 24.959 202.258 24.916C202.262 24.916 202.268 24.9121 202.275 24.9043C202.279 24.9004 202.283 24.8945 202.287 24.8867C202.385 24.6836 202.463 24.4707 202.521 24.248C202.584 24.0215 202.615 23.8008 202.615 23.5859C202.615 23.4102 202.6 23.2461 202.568 23.0938C202.541 22.9414 202.494 22.7891 202.428 22.6367C202.428 22.625 202.42 22.6016 202.404 22.5664C202.393 22.5312 202.387 22.5098 202.387 22.502C202.363 22.4004 202.338 22.291 202.311 22.1738C202.287 22.0527 202.236 21.9531 202.158 21.875C202.15 21.8633 202.129 21.8398 202.094 21.8047C202.059 21.7695 202.02 21.7324 201.977 21.6934C201.938 21.6543 201.9 21.6172 201.865 21.582C201.834 21.5469 201.816 21.5234 201.812 21.5117C201.805 21.5078 201.793 21.498 201.777 21.4824C201.766 21.4629 201.752 21.4434 201.736 21.4238C201.721 21.4043 201.705 21.3867 201.689 21.3711C201.678 21.3516 201.672 21.3398 201.672 21.3359C201.66 21.3281 201.643 21.3125 201.619 21.2891C201.6 21.2617 201.586 21.2441 201.578 21.2363C201.57 21.2363 201.557 21.2324 201.537 21.2246C201.518 21.2129 201.496 21.2012 201.473 21.1895C201.449 21.1777 201.428 21.168 201.408 21.1602C201.389 21.1484 201.377 21.1426 201.373 21.1426C201.361 21.1348 201.33 21.125 201.279 21.1133C201.229 21.1016 201.174 21.0898 201.115 21.0781C201.061 21.0664 201.008 21.0566 200.957 21.0488C200.91 21.0371 200.881 21.0293 200.869 21.0254C200.85 21.0254 200.818 21.0293 200.775 21.0371C200.732 21.041 200.688 21.0488 200.641 21.0605C200.594 21.0684 200.549 21.0762 200.506 21.084C200.463 21.0918 200.428 21.0977 200.4 21.1016C200.346 21.1562 200.289 21.207 200.23 21.2539C200.176 21.2969 200.121 21.3418 200.066 21.3887C200.012 21.4316 199.959 21.4785 199.908 21.5293C199.861 21.5762 199.82 21.6309 199.785 21.6934C199.777 21.7051 199.762 21.7305 199.738 21.7695C199.719 21.8086 199.695 21.8516 199.668 21.8984C199.645 21.9453 199.621 21.9883 199.598 22.0273C199.578 22.0664 199.566 22.0898 199.562 22.0977C199.539 22.1445 199.512 22.1953 199.48 22.25C199.453 22.3008 199.426 22.3555 199.398 22.4141C199.371 22.4727 199.348 22.5332 199.328 22.5957C199.312 22.6543 199.303 22.7109 199.299 22.7656C199.291 22.8086 199.283 22.877 199.275 22.9707C199.271 23.0645 199.268 23.1621 199.264 23.2637C199.26 23.3613 199.256 23.4531 199.252 23.5391C199.248 23.6211 199.246 23.6738 199.246 23.6973ZM198.215 23.3457C198.215 23.2637 198.229 23.1816 198.256 23.0996C198.287 23.0176 198.312 22.9375 198.332 22.8594C198.336 22.8438 198.344 22.8008 198.355 22.7305C198.371 22.6562 198.387 22.5781 198.402 22.4961C198.422 22.4141 198.439 22.3379 198.455 22.2676C198.471 22.1973 198.48 22.1543 198.484 22.1387C198.492 22.1152 198.502 22.0918 198.514 22.0684C198.521 22.0488 198.529 22.0293 198.537 22.0098C198.549 21.9863 198.559 21.9688 198.566 21.957C198.594 21.918 198.627 21.8633 198.666 21.793C198.705 21.7227 198.742 21.6543 198.777 21.5879C198.816 21.5215 198.85 21.4648 198.877 21.418C198.908 21.3672 198.928 21.3398 198.936 21.3359C198.939 21.3242 198.955 21.3047 198.982 21.2773C199.01 21.2461 199.039 21.2129 199.07 21.1777C199.105 21.1426 199.139 21.1113 199.17 21.084C199.201 21.0527 199.227 21.0332 199.246 21.0254C199.254 21.0137 199.275 21.0039 199.311 20.9961C199.35 20.9883 199.373 20.9844 199.381 20.9844C199.498 20.9258 199.609 20.8711 199.715 20.8203C199.82 20.7695 199.926 20.7207 200.031 20.6738C200.141 20.627 200.252 20.584 200.365 20.5449C200.479 20.5059 200.604 20.4688 200.74 20.4336H200.746H200.77C200.836 20.4375 200.922 20.4434 201.027 20.4512C201.133 20.4551 201.234 20.4609 201.332 20.4688C201.434 20.4727 201.52 20.4766 201.59 20.4805C201.664 20.4844 201.705 20.4863 201.713 20.4863C201.889 20.502 202.062 20.5566 202.234 20.6504C202.41 20.7402 202.572 20.8535 202.721 20.9902C202.873 21.127 203.004 21.2793 203.113 21.4473C203.227 21.6113 203.311 21.7715 203.365 21.9277C203.369 21.9316 203.373 21.9492 203.377 21.9805C203.385 22.0078 203.391 22.0391 203.395 22.0742C203.402 22.1094 203.408 22.1426 203.412 22.1738C203.42 22.2012 203.428 22.2188 203.436 22.2266C203.436 22.2344 203.441 22.2578 203.453 22.2969C203.469 22.332 203.484 22.3711 203.5 22.4141C203.52 22.457 203.535 22.4961 203.547 22.5312C203.562 22.5664 203.572 22.5879 203.576 22.5957C203.576 22.6035 203.578 22.6133 203.582 22.625C203.582 22.6328 203.582 22.6406 203.582 22.6484C203.586 22.6562 203.588 22.6621 203.588 22.666C203.588 22.7324 203.584 22.7969 203.576 22.8594C203.568 22.918 203.564 22.9785 203.564 23.041C203.564 23.0918 203.568 23.1367 203.576 23.1758C203.588 23.2148 203.594 23.2578 203.594 23.3047V23.4043C203.543 23.6387 203.494 23.8652 203.447 24.084C203.4 24.2988 203.334 24.502 203.248 24.6934C203.162 24.8809 203.049 25.0547 202.908 25.2148C202.768 25.375 202.578 25.5156 202.34 25.6367C202.109 25.7539 201.871 25.8457 201.625 25.9121C201.383 25.9785 201.135 26.0117 200.881 26.0117C200.857 26.0117 200.826 26.0098 200.787 26.0059C200.752 26.0059 200.717 26.0059 200.682 26.0059C200.646 26.0059 200.615 26.0039 200.588 26C200.561 26 200.547 26 200.547 26C200.543 26 200.514 25.9941 200.459 25.9824C200.408 25.9668 200.346 25.9492 200.271 25.9297C200.201 25.9102 200.129 25.8906 200.055 25.8711C199.98 25.8477 199.92 25.8301 199.873 25.8184C199.83 25.8066 199.785 25.7949 199.738 25.7832C199.691 25.7715 199.646 25.752 199.604 25.7246C199.494 25.666 199.387 25.6035 199.281 25.5371C199.176 25.4707 199.072 25.4023 198.971 25.332C198.967 25.3242 198.961 25.3164 198.953 25.3086C198.945 25.2969 198.939 25.2871 198.936 25.2793C198.85 25.1738 198.764 25.043 198.678 24.8867C198.592 24.7266 198.514 24.5586 198.443 24.3828C198.377 24.2031 198.322 24.0234 198.279 23.8438C198.236 23.6602 198.215 23.4941 198.215 23.3457Z" fill="black"/>
</svg>
