<svg width="360" height="44" viewBox="0 0 360 44" fill="none" xmlns="http://www.w3.org/2000/svg">
<rect width="360" height="44" fill="#E6E6E6"/>
<rect x="12.5" y="4.5" width="334" height="35" rx="11.5" fill="white" stroke="#989898"/>
<path d="M149.734 17.7676C149.734 17.7051 149.764 17.6641 149.822 17.6445C149.885 17.6211 149.949 17.6094 150.016 17.6094H150.473C150.512 17.6055 150.586 17.6016 150.695 17.5977C150.809 17.5938 150.926 17.5898 151.047 17.5859C151.172 17.5781 151.289 17.5723 151.398 17.5684C151.512 17.5645 151.592 17.5605 151.639 17.5566C151.646 17.5645 151.674 17.5742 151.721 17.5859C151.768 17.5938 151.801 17.6016 151.82 17.6094H151.85C151.9 17.6094 151.945 17.5957 151.984 17.5684C152.027 17.541 152.07 17.5273 152.113 17.5273C152.121 17.5195 152.145 17.5156 152.184 17.5156C152.215 17.5156 152.248 17.5176 152.283 17.5215C152.318 17.5254 152.34 17.5273 152.348 17.5273C152.379 17.5195 152.428 17.5117 152.494 17.5039C152.564 17.4922 152.635 17.4805 152.705 17.4688C152.779 17.457 152.846 17.4473 152.904 17.4395C152.967 17.4316 153.008 17.4258 153.027 17.4219C153.031 17.4219 153.043 17.418 153.062 17.4102C153.086 17.4023 153.109 17.3945 153.133 17.3867C153.16 17.375 153.184 17.3652 153.203 17.3574C153.227 17.3457 153.242 17.3379 153.25 17.334C153.266 17.3262 153.297 17.3164 153.344 17.3047C153.391 17.2891 153.416 17.2812 153.42 17.2812H153.719H154.012C154.062 17.3008 154.092 17.332 154.1 17.375C154.107 17.418 154.111 17.459 154.111 17.498C154.111 17.5137 154.109 17.5352 154.105 17.5625C154.102 17.5859 154.1 17.6016 154.1 17.6094C154.1 17.6172 154.092 17.6309 154.076 17.6504C154.061 17.666 154.043 17.6836 154.023 17.7031C154.004 17.7188 153.984 17.7344 153.965 17.75C153.949 17.7617 153.938 17.7676 153.93 17.7676C153.898 17.7793 153.848 17.791 153.777 17.8027C153.707 17.8145 153.633 17.8262 153.555 17.8379C153.48 17.8457 153.408 17.8535 153.338 17.8613C153.271 17.8691 153.225 17.873 153.197 17.873C153.193 17.873 153.184 17.875 153.168 17.8789C153.152 17.8789 153.133 17.8789 153.109 17.8789C153.062 17.8789 153.01 17.8789 152.951 17.8789C152.896 17.875 152.861 17.873 152.846 17.873C152.791 17.877 152.73 17.8867 152.664 17.9023C152.602 17.9141 152.553 17.9473 152.518 18.002C152.518 18.0215 152.514 18.0547 152.506 18.1016C152.498 18.1484 152.49 18.1992 152.482 18.2539C152.475 18.3047 152.465 18.3555 152.453 18.4062C152.445 18.4531 152.441 18.4844 152.441 18.5C152.441 18.5078 152.436 18.5312 152.424 18.5703C152.412 18.6055 152.406 18.625 152.406 18.6289C152.402 18.6406 152.398 18.6543 152.395 18.6699C152.391 18.6855 152.389 18.707 152.389 18.7344C152.389 18.8242 152.396 18.9102 152.412 18.9922C152.432 19.0742 152.441 19.166 152.441 19.2676C152.441 19.4121 152.436 19.5527 152.424 19.6895C152.412 19.8223 152.406 19.959 152.406 20.0996C152.406 20.1074 152.408 20.1211 152.412 20.1406C152.416 20.1562 152.42 20.1758 152.424 20.1992C152.428 20.2227 152.432 20.2441 152.436 20.2637C152.439 20.2832 152.441 20.2969 152.441 20.3047C152.441 20.3125 152.441 20.3359 152.441 20.375C152.445 20.4102 152.447 20.4512 152.447 20.498C152.447 20.5449 152.447 20.5957 152.447 20.6504C152.447 20.7051 152.445 20.7578 152.441 20.8086C152.441 20.8594 152.441 20.9043 152.441 20.9434C152.441 20.9824 152.441 21.0098 152.441 21.0254C152.441 21.0254 152.443 21.0352 152.447 21.0547C152.451 21.0703 152.455 21.0879 152.459 21.1074C152.463 21.123 152.467 21.1406 152.471 21.1602C152.475 21.1758 152.477 21.1836 152.477 21.1836C152.477 21.1992 152.479 21.2285 152.482 21.2715C152.486 21.3145 152.49 21.3613 152.494 21.4121C152.502 21.459 152.508 21.5059 152.512 21.5527C152.516 21.5957 152.518 21.6289 152.518 21.6523L152.529 21.6758C152.537 21.6914 152.541 21.7031 152.541 21.7109C152.541 21.9531 152.529 22.1953 152.506 22.4375C152.482 22.6797 152.461 22.9238 152.441 23.1699C152.441 23.1816 152.443 23.2031 152.447 23.2344C152.451 23.2617 152.455 23.293 152.459 23.3281C152.463 23.3594 152.467 23.3906 152.471 23.4219C152.475 23.4531 152.477 23.4746 152.477 23.4863C152.48 23.5176 152.484 23.5703 152.488 23.6445C152.496 23.7148 152.502 23.791 152.506 23.873C152.51 23.9551 152.512 24.0332 152.512 24.1074C152.516 24.1777 152.518 24.2266 152.518 24.2539C152.525 24.2656 152.529 24.2969 152.529 24.3477C152.529 24.3945 152.529 24.4492 152.529 24.5117C152.529 24.5703 152.527 24.6309 152.523 24.6934C152.523 24.7559 152.523 24.8164 152.523 24.875C152.523 24.9297 152.521 24.9785 152.518 25.0215C152.518 25.0605 152.518 25.0859 152.518 25.0977C152.521 25.1172 152.525 25.1445 152.529 25.1797C152.537 25.2148 152.545 25.25 152.553 25.2852C152.561 25.3203 152.572 25.3535 152.588 25.3848C152.607 25.4121 152.633 25.4316 152.664 25.4434C152.68 25.4434 152.711 25.4453 152.758 25.4492C152.805 25.4531 152.854 25.457 152.904 25.4609C152.959 25.4609 153.01 25.4629 153.057 25.4668C153.104 25.4707 153.135 25.4727 153.15 25.4727C153.166 25.4727 153.191 25.4766 153.227 25.4844C153.262 25.4922 153.283 25.498 153.291 25.502C153.334 25.502 153.408 25.502 153.514 25.502C153.623 25.498 153.744 25.4961 153.877 25.4961C154.002 25.4961 154.119 25.498 154.229 25.502C154.338 25.502 154.414 25.502 154.457 25.502C154.461 25.502 154.475 25.5039 154.498 25.5078C154.525 25.5117 154.555 25.5176 154.586 25.5254C154.617 25.5293 154.646 25.5352 154.674 25.543C154.705 25.5469 154.725 25.5508 154.732 25.5547C154.9 25.5625 155.074 25.5781 155.254 25.6016C155.438 25.625 155.617 25.6367 155.793 25.6367C155.844 25.6367 155.883 25.6348 155.91 25.6309C155.941 25.623 155.984 25.6113 156.039 25.5957C156.129 25.5488 156.217 25.502 156.303 25.4551C156.389 25.4043 156.477 25.3555 156.566 25.3086C156.59 25.2812 156.611 25.2598 156.631 25.2441C156.65 25.2285 156.67 25.2148 156.689 25.2031C156.709 25.1914 156.729 25.1777 156.748 25.1621C156.771 25.1465 156.799 25.125 156.83 25.0977C156.943 25 157.043 24.8906 157.129 24.7695C157.219 24.6484 157.305 24.5254 157.387 24.4004C157.469 24.2715 157.551 24.1445 157.633 24.0195C157.715 23.8906 157.809 23.7734 157.914 23.668C157.914 23.6602 157.924 23.6562 157.943 23.6562H157.949C157.949 23.6562 157.957 23.6602 157.973 23.668L157.984 23.7031C157.988 23.7109 157.992 23.7188 157.996 23.7266C158 23.7344 158.002 23.7422 158.002 23.75C158.006 23.7617 158.012 23.791 158.02 23.8379C158.027 23.8809 158.035 23.9297 158.043 23.9844C158.051 24.0391 158.059 24.0918 158.066 24.1426C158.074 24.1934 158.08 24.2305 158.084 24.2539V24.2891V24.3359C158.084 24.3555 158.08 24.4004 158.072 24.4707C158.064 24.5371 158.055 24.6113 158.043 24.6934C158.035 24.7754 158.027 24.8535 158.02 24.9277C158.012 24.998 158.006 25.0449 158.002 25.0684C158.002 25.0801 158 25.1113 157.996 25.1621C157.992 25.2129 157.988 25.2695 157.984 25.332C157.984 25.3906 157.982 25.4473 157.979 25.502C157.975 25.5527 157.973 25.584 157.973 25.5957C157.953 25.7207 157.916 25.8203 157.861 25.8945C157.807 25.9648 157.723 26 157.609 26C157.574 25.9922 157.512 25.9883 157.422 25.9883C157.332 25.9883 157.236 25.9883 157.135 25.9883C157.033 25.9883 156.938 25.9883 156.848 25.9883C156.758 25.9883 156.697 25.9922 156.666 26C156.658 26 156.643 26 156.619 26C156.6 26.0039 156.576 26.0078 156.549 26.0117C156.521 26.0156 156.496 26.0176 156.473 26.0176C156.453 26.0215 156.439 26.0254 156.432 26.0293H155.225C155.197 26.0332 155.127 26.0371 155.014 26.041C154.904 26.0488 154.787 26.0547 154.662 26.0586C154.537 26.0664 154.418 26.0723 154.305 26.0762C154.195 26.0801 154.127 26.082 154.1 26.082H154.082H154.053C154.029 26.0781 153.969 26.0723 153.871 26.0645C153.777 26.0566 153.674 26.0469 153.561 26.0352C153.451 26.0273 153.35 26.0195 153.256 26.0117C153.162 26.0039 153.104 26 153.08 26H152.664C152.656 26 152.633 25.9961 152.594 25.9883C152.555 25.9766 152.529 25.9707 152.518 25.9707C152.518 25.9707 152.508 25.9727 152.488 25.9766C152.473 25.9805 152.455 25.9844 152.436 25.9883C152.416 25.9883 152.396 25.9902 152.377 25.9941C152.361 25.998 152.352 26 152.348 26H152.072C151.768 26.0078 151.461 26.0234 151.152 26.0469C150.848 26.0703 150.539 26.082 150.227 26.082H149.945C149.938 26.082 149.928 26.0801 149.916 26.0762C149.908 26.0723 149.887 26.0566 149.852 26.0293C149.844 26.0215 149.836 26.0039 149.828 25.9766C149.824 25.9492 149.822 25.9238 149.822 25.9004C149.822 25.8574 149.83 25.8203 149.846 25.7891C149.865 25.7539 149.891 25.7324 149.922 25.7246C149.93 25.7207 149.945 25.7129 149.969 25.7012C149.992 25.6855 150.008 25.6738 150.016 25.666C150.094 25.6309 150.186 25.6133 150.291 25.6133C150.4 25.6133 150.51 25.6113 150.619 25.6074C150.729 25.5996 150.83 25.582 150.924 25.5547C151.018 25.5234 151.09 25.4629 151.141 25.373C151.145 25.3574 151.148 25.3281 151.152 25.2852C151.156 25.2383 151.16 25.1914 151.164 25.1445C151.168 25.0938 151.172 25.0488 151.176 25.0098C151.18 24.9668 151.182 24.9395 151.182 24.9277C151.182 24.916 151.174 24.8906 151.158 24.8516C151.146 24.8086 151.141 24.7832 151.141 24.7754V24.4707L151.123 24.3359C151.119 24.3281 151.117 24.3203 151.117 24.3125C151.113 24.3047 151.111 24.2969 151.111 24.2891C151.111 24.2266 151.115 24.1738 151.123 24.1309C151.135 24.0879 151.141 24.0391 151.141 23.9844V23.8906C151.141 23.875 151.137 23.8496 151.129 23.8145C151.125 23.7793 151.123 23.7578 151.123 23.75C151.123 23.7383 151.125 23.709 151.129 23.6621C151.137 23.6152 151.141 23.584 151.141 23.5684V23.1699C151.141 23.1504 151.148 23.1152 151.164 23.0645C151.18 23.0137 151.186 22.9785 151.182 22.959C151.174 22.9395 151.166 22.8848 151.158 22.7949C151.154 22.7051 151.148 22.5605 151.141 22.3613V21.957C151.148 21.7578 151.154 21.6152 151.158 21.5293C151.166 21.4434 151.174 21.3926 151.182 21.377V21.3477C151.182 21.1992 151.174 21.0508 151.158 20.9023C151.146 20.7539 151.141 20.6055 151.141 20.457C151.141 20.4297 151.139 20.4023 151.135 20.375C151.131 20.3477 151.129 20.3203 151.129 20.293C151.129 20.2578 151.137 20.209 151.152 20.1465C151.172 20.0801 151.182 20.0039 151.182 19.918C151.182 19.8203 151.18 19.7207 151.176 19.6191C151.172 19.5137 151.17 19.4102 151.17 19.3086C151.17 19.2188 151.172 19.1309 151.176 19.0449C151.18 18.9551 151.182 18.8652 151.182 18.7754C151.162 18.7324 151.148 18.6816 151.141 18.623C151.137 18.5645 151.131 18.5078 151.123 18.4531C151.119 18.3945 151.111 18.3418 151.1 18.2949C151.092 18.2441 151.072 18.207 151.041 18.1836C150.986 18.1406 150.906 18.1133 150.801 18.1016C150.699 18.0859 150.586 18.0723 150.461 18.0605C150.355 18.0527 150.248 18.0469 150.139 18.043C150.033 18.0352 149.945 18.0156 149.875 17.9844C149.781 17.9492 149.734 17.877 149.734 17.7676ZM159.537 22.127C159.537 22.1504 159.547 22.1738 159.566 22.1973C159.59 22.2207 159.615 22.2441 159.643 22.2676C159.674 22.2871 159.703 22.3047 159.73 22.3203C159.762 22.332 159.787 22.3418 159.807 22.3496H160.416H161.014C161.045 22.3457 161.098 22.3398 161.172 22.332C161.25 22.3242 161.33 22.3164 161.412 22.3086C161.498 22.2969 161.578 22.2852 161.652 22.2734C161.73 22.2617 161.785 22.25 161.816 22.2383C161.824 22.2305 161.834 22.2129 161.846 22.1855C161.861 22.1543 161.869 22.1348 161.869 22.127V22.0742V22.0273C161.869 22.0156 161.867 21.9941 161.863 21.9629C161.859 21.9277 161.854 21.8926 161.846 21.8574C161.842 21.8184 161.836 21.7812 161.828 21.7461C161.824 21.7109 161.82 21.6855 161.816 21.6699C161.777 21.6426 161.744 21.6094 161.717 21.5703C161.689 21.5312 161.66 21.4941 161.629 21.459C161.602 21.4199 161.57 21.3848 161.535 21.3535C161.504 21.3223 161.465 21.2969 161.418 21.2773C161.391 21.2656 161.354 21.25 161.307 21.2305C161.264 21.207 161.221 21.1855 161.178 21.166C161.135 21.1465 161.098 21.1289 161.066 21.1133C161.035 21.0977 161.018 21.0879 161.014 21.084H160.973H160.926C160.898 21.0879 160.863 21.0938 160.82 21.1016C160.777 21.1094 160.734 21.1172 160.691 21.125C160.648 21.1289 160.611 21.1328 160.58 21.1367C160.549 21.1406 160.531 21.1426 160.527 21.1426C160.516 21.1426 160.496 21.1504 160.469 21.166C160.445 21.1777 160.418 21.1914 160.387 21.207C160.359 21.2227 160.332 21.2383 160.305 21.2539C160.281 21.2656 160.266 21.2734 160.258 21.2773C160.191 21.3008 160.127 21.3184 160.064 21.3301C160.006 21.3418 159.955 21.3809 159.912 21.4473C159.904 21.459 159.887 21.4883 159.859 21.5352C159.832 21.582 159.814 21.6113 159.807 21.623C159.783 21.666 159.756 21.707 159.725 21.7461C159.693 21.7812 159.664 21.8184 159.637 21.8574C159.609 21.8926 159.586 21.9336 159.566 21.9805C159.547 22.0234 159.537 22.0723 159.537 22.127ZM158.652 23.5566V23.4453C158.656 23.4258 158.66 23.3887 158.664 23.334C158.672 23.2793 158.676 23.2227 158.676 23.1641C158.68 23.1016 158.684 23.043 158.688 22.9883C158.691 22.9336 158.697 22.8965 158.705 22.877C158.709 22.8066 158.719 22.7285 158.734 22.6426C158.754 22.5527 158.775 22.4629 158.799 22.373C158.826 22.2832 158.857 22.1973 158.893 22.1152C158.928 22.0293 158.967 21.9551 159.01 21.8926C159.014 21.8887 159.021 21.8809 159.033 21.8691C159.049 21.8535 159.064 21.8398 159.08 21.8281C159.096 21.8125 159.109 21.7988 159.121 21.7871C159.137 21.7754 159.146 21.7676 159.15 21.7637C159.154 21.7598 159.158 21.748 159.162 21.7285C159.17 21.709 159.178 21.6895 159.186 21.6699C159.193 21.6504 159.199 21.6328 159.203 21.6172C159.211 21.5977 159.217 21.5859 159.221 21.582C159.287 21.4688 159.369 21.375 159.467 21.3008C159.564 21.2266 159.664 21.1543 159.766 21.084C159.836 21.041 159.9 21.002 159.959 20.9668C160.021 20.9277 160.082 20.8945 160.141 20.8672C160.203 20.8359 160.268 20.8086 160.334 20.7852C160.404 20.7617 160.482 20.7422 160.568 20.7266C160.576 20.7266 160.607 20.7246 160.662 20.7207C160.721 20.7168 160.787 20.7148 160.861 20.7148C160.936 20.7109 161.012 20.707 161.09 20.7031C161.168 20.6992 161.23 20.6973 161.277 20.6973H161.33H161.383C161.512 20.7285 161.633 20.7656 161.746 20.8086C161.863 20.8477 161.971 20.8984 162.068 20.9609C162.17 21.0234 162.262 21.0996 162.344 21.1895C162.43 21.2754 162.508 21.3789 162.578 21.5C162.582 21.5078 162.588 21.5312 162.596 21.5703C162.604 21.6055 162.611 21.623 162.619 21.623C162.643 21.6816 162.67 21.7344 162.701 21.7812C162.736 21.8281 162.768 21.875 162.795 21.9219C162.826 21.9648 162.852 22.0117 162.871 22.0625C162.891 22.1094 162.9 22.1641 162.9 22.2266C162.9 22.3008 162.869 22.373 162.807 22.4434C162.748 22.5098 162.701 22.5625 162.666 22.6016C162.643 22.6094 162.6 22.6191 162.537 22.6309C162.479 22.6426 162.412 22.6543 162.338 22.666C162.268 22.6777 162.195 22.6875 162.121 22.6953C162.051 22.7031 161.992 22.707 161.945 22.707C161.93 22.707 161.895 22.707 161.84 22.707C161.789 22.7031 161.727 22.6992 161.652 22.6953C161.582 22.6914 161.506 22.6895 161.424 22.6895C161.342 22.6855 161.264 22.6836 161.189 22.6836C161.111 22.6836 161.043 22.6875 160.984 22.6953C160.93 22.7031 160.893 22.707 160.873 22.707C160.869 22.707 160.852 22.709 160.82 22.7129C160.793 22.7168 160.762 22.7227 160.727 22.7305C160.691 22.7344 160.658 22.7383 160.627 22.7422C160.596 22.7461 160.576 22.748 160.568 22.748C160.525 22.752 160.463 22.7539 160.381 22.7539C160.299 22.7539 160.207 22.7539 160.105 22.7539C160.004 22.7539 159.908 22.7539 159.818 22.7539C159.732 22.7539 159.672 22.752 159.637 22.748C159.605 22.752 159.584 22.7637 159.572 22.7832C159.561 22.7988 159.551 22.8164 159.543 22.8359C159.543 22.8359 159.541 22.8457 159.537 22.8652C159.537 22.8809 159.537 22.9004 159.537 22.9238C159.537 22.9473 159.537 22.9727 159.537 23C159.537 23.0234 159.537 23.043 159.537 23.0586C159.537 23.0781 159.537 23.1074 159.537 23.1465C159.537 23.1855 159.537 23.2246 159.537 23.2637C159.537 23.2988 159.537 23.332 159.537 23.3633C159.541 23.3945 159.543 23.4121 159.543 23.416C159.547 23.498 159.578 23.6094 159.637 23.75C159.695 23.8867 159.764 24.0254 159.842 24.166C159.924 24.3066 160.01 24.4375 160.1 24.5586C160.193 24.6758 160.279 24.7539 160.357 24.793C160.373 24.8047 160.41 24.8262 160.469 24.8574C160.527 24.8887 160.59 24.9219 160.656 24.957C160.723 24.9883 160.785 25.0195 160.844 25.0508C160.906 25.0781 160.949 25.0977 160.973 25.1094C160.992 25.1094 161.006 25.1074 161.014 25.1035C161.025 25.0996 161.039 25.0977 161.055 25.0977C161.133 25.0977 161.205 25.1074 161.271 25.127C161.342 25.1465 161.416 25.1562 161.494 25.1562H161.582C161.602 25.1562 161.623 25.1543 161.646 25.1504L162.232 24.8457C162.248 24.7988 162.268 24.752 162.291 24.7051C162.314 24.6543 162.342 24.6094 162.373 24.5703C162.408 24.5312 162.447 24.5 162.49 24.4766C162.537 24.4531 162.594 24.4414 162.66 24.4414H162.666C162.674 24.4492 162.684 24.4629 162.695 24.4824C162.711 24.502 162.719 24.5137 162.719 24.5176C162.719 24.5254 162.711 24.5469 162.695 24.582C162.684 24.6172 162.674 24.6445 162.666 24.6641C162.623 24.7773 162.578 24.8848 162.531 24.9863C162.484 25.0879 162.426 25.1895 162.355 25.291C162.348 25.2988 162.334 25.3125 162.314 25.332C162.295 25.3516 162.273 25.373 162.25 25.3965C162.227 25.4199 162.203 25.4434 162.18 25.4668C162.16 25.4863 162.145 25.502 162.133 25.5137C162.125 25.5176 162.109 25.5254 162.086 25.5371C162.066 25.5488 162.043 25.5625 162.016 25.5781C161.992 25.5898 161.971 25.6035 161.951 25.6191C161.932 25.6309 161.92 25.6387 161.916 25.6426C161.826 25.6973 161.746 25.7461 161.676 25.7891C161.609 25.832 161.541 25.8691 161.471 25.9004C161.404 25.9316 161.332 25.957 161.254 25.9766C161.18 25.9922 161.094 26 160.996 26C160.738 26 160.492 25.9707 160.258 25.9121C160.023 25.8496 159.811 25.7578 159.619 25.6367C159.428 25.5117 159.264 25.3555 159.127 25.168C158.994 24.9766 158.9 24.75 158.846 24.4883C158.83 24.4453 158.812 24.3809 158.793 24.2949C158.773 24.209 158.754 24.1211 158.734 24.0312C158.715 23.9414 158.697 23.8594 158.682 23.7852C158.666 23.707 158.656 23.6582 158.652 23.6387V23.5566ZM165.941 23.1934C165.93 23.1934 165.9 23.2051 165.854 23.2285C165.811 23.252 165.764 23.2793 165.713 23.3105C165.666 23.3379 165.619 23.3672 165.572 23.3984C165.529 23.4258 165.5 23.4453 165.484 23.457C165.477 23.4688 165.453 23.4941 165.414 23.5332C165.375 23.5723 165.332 23.6152 165.285 23.6621C165.242 23.7051 165.201 23.7461 165.162 23.7852C165.123 23.8242 165.1 23.8496 165.092 23.8613C165.076 23.8613 165.057 23.8691 165.033 23.8848L164.998 23.9023C164.979 23.9219 164.951 23.9688 164.916 24.043C164.881 24.1133 164.852 24.1875 164.828 24.2656C164.801 24.3438 164.785 24.4023 164.781 24.4414C164.777 24.4805 164.775 24.5332 164.775 24.5996C164.775 24.6973 164.787 24.7871 164.811 24.8691C164.834 24.9512 164.896 25.0176 164.998 25.0684C165.014 25.0762 165.035 25.0859 165.062 25.0977C165.094 25.1055 165.123 25.1133 165.15 25.1211C165.182 25.1289 165.209 25.1367 165.232 25.1445C165.256 25.1484 165.273 25.1504 165.285 25.1504C165.305 25.1504 165.33 25.1504 165.361 25.1504C165.393 25.1465 165.426 25.1426 165.461 25.1387C165.496 25.1348 165.527 25.1309 165.555 25.127C165.586 25.123 165.609 25.1191 165.625 25.1152C165.77 25.084 165.885 25.0371 165.971 24.9746C166.057 24.9082 166.117 24.8047 166.152 24.6641C166.16 24.6289 166.172 24.584 166.188 24.5293C166.203 24.4707 166.217 24.4141 166.229 24.3594C166.244 24.3008 166.258 24.25 166.27 24.207C166.281 24.1602 166.287 24.1328 166.287 24.125C166.295 24.125 166.299 24.1172 166.299 24.1016C166.303 24.082 166.305 24.0703 166.305 24.0664C166.305 24.0547 166.303 24.041 166.299 24.0254C166.299 24.0059 166.295 23.9922 166.287 23.9844C166.279 23.957 166.273 23.9316 166.27 23.9082C166.266 23.8887 166.262 23.8691 166.258 23.8496C166.258 23.8301 166.258 23.8164 166.258 23.8086V23.5859C166.25 23.5508 166.236 23.5117 166.217 23.4688C166.197 23.4219 166.174 23.3789 166.146 23.3398C166.123 23.2969 166.094 23.2617 166.059 23.2344C166.023 23.207 165.984 23.1934 165.941 23.1934ZM163.709 24.8867C163.709 24.7891 163.721 24.6758 163.744 24.5469C163.768 24.4141 163.814 24.3047 163.885 24.2188C163.889 24.2148 163.906 24.1953 163.938 24.1602C163.973 24.125 164.012 24.0859 164.055 24.043C164.098 23.9961 164.141 23.9512 164.184 23.9082C164.23 23.8652 164.266 23.832 164.289 23.8086C164.414 23.6953 164.547 23.5918 164.688 23.498C164.828 23.4004 164.973 23.3145 165.121 23.2402C165.141 23.2324 165.174 23.2246 165.221 23.2168C165.271 23.209 165.303 23.2012 165.314 23.1934C165.326 23.1895 165.348 23.1797 165.379 23.1641C165.414 23.1445 165.451 23.125 165.49 23.1055C165.529 23.082 165.564 23.0625 165.596 23.0469C165.631 23.0273 165.652 23.0176 165.66 23.0176C165.727 22.9863 165.787 22.9609 165.842 22.9414C165.9 22.9219 165.955 22.9004 166.006 22.877C166.057 22.8535 166.105 22.8262 166.152 22.7949C166.199 22.7598 166.244 22.7129 166.287 22.6543C166.295 22.6387 166.301 22.6113 166.305 22.5723C166.312 22.5293 166.318 22.4844 166.322 22.4375C166.326 22.3867 166.328 22.3398 166.328 22.2969C166.332 22.25 166.334 22.2168 166.334 22.1973C166.334 22.1035 166.332 22.0098 166.328 21.916C166.324 21.8184 166.309 21.7266 166.281 21.6406C166.258 21.5508 166.219 21.4707 166.164 21.4004C166.113 21.3262 166.039 21.2676 165.941 21.2246C165.934 21.2207 165.916 21.2148 165.889 21.207C165.861 21.1992 165.832 21.1914 165.801 21.1836C165.77 21.1719 165.74 21.1621 165.713 21.1543C165.686 21.1465 165.668 21.1426 165.66 21.1426C165.66 21.1387 165.652 21.1328 165.637 21.125C165.621 21.1172 165.604 21.1094 165.584 21.1016C165.564 21.0898 165.545 21.082 165.525 21.0781C165.506 21.0703 165.492 21.0645 165.484 21.0605H165.455C165.404 21.0605 165.365 21.0664 165.338 21.0781C165.311 21.0898 165.275 21.1113 165.232 21.1426C165.217 21.1504 165.197 21.1602 165.174 21.1719C165.15 21.1836 165.127 21.1973 165.104 21.2129C165.08 21.2285 165.059 21.2422 165.039 21.2539C165.023 21.2617 165.014 21.2656 165.01 21.2656C165.002 21.2734 164.992 21.2891 164.98 21.3125C164.969 21.332 164.957 21.3555 164.945 21.3828C164.938 21.4062 164.93 21.4297 164.922 21.4531C164.914 21.4727 164.91 21.4844 164.91 21.4883C164.906 21.4961 164.902 21.5117 164.898 21.5352C164.895 21.5547 164.891 21.5781 164.887 21.6055C164.883 21.6289 164.879 21.6523 164.875 21.6758C164.871 21.6953 164.869 21.707 164.869 21.7109C164.869 21.7227 164.861 21.748 164.846 21.7871C164.83 21.8223 164.816 21.8438 164.805 21.8516C164.789 21.9375 164.777 22.0098 164.77 22.0684C164.766 22.127 164.752 22.1738 164.729 22.209C164.705 22.2441 164.668 22.2695 164.617 22.2852C164.57 22.2969 164.498 22.3027 164.4 22.3027C164.311 22.3027 164.223 22.3008 164.137 22.2969C164.055 22.293 163.98 22.2793 163.914 22.2559C163.852 22.2285 163.801 22.1875 163.762 22.1328C163.723 22.0742 163.703 21.9941 163.703 21.8926C163.703 21.8496 163.705 21.8027 163.709 21.752C163.713 21.7012 163.727 21.6582 163.75 21.623C163.754 21.6191 163.764 21.6094 163.779 21.5938C163.795 21.5742 163.812 21.5547 163.832 21.5352C163.852 21.5156 163.869 21.498 163.885 21.4824C163.904 21.4668 163.918 21.4551 163.926 21.4473C164.262 21.1973 164.611 20.9941 164.975 20.8379C165.342 20.6777 165.734 20.5977 166.152 20.5977C166.25 20.5977 166.348 20.6035 166.445 20.6152C166.547 20.627 166.645 20.6504 166.738 20.6855C166.832 20.7168 166.918 20.7617 166.996 20.8203C167.074 20.8789 167.139 20.9531 167.189 21.043C167.201 21.0664 167.215 21.0977 167.23 21.1367C167.25 21.1758 167.27 21.2148 167.289 21.2539C167.309 21.293 167.324 21.3262 167.336 21.3535C167.352 21.3809 167.359 21.3965 167.359 21.4004C167.363 21.4121 167.367 21.4414 167.371 21.4883C167.375 21.5312 167.379 21.5781 167.383 21.6289C167.387 21.6758 167.391 21.7227 167.395 21.7695C167.398 21.8125 167.4 21.8398 167.4 21.8516C167.4 21.8633 167.408 21.8809 167.424 21.9043C167.432 21.916 167.441 21.9258 167.453 21.9336C167.457 21.9336 167.459 21.9434 167.459 21.9629V21.9688C167.455 21.9727 167.453 21.9746 167.453 21.9746C167.426 22.0645 167.408 22.1543 167.4 22.2441C167.393 22.334 167.379 22.4277 167.359 22.5254C167.359 22.5293 167.354 22.5566 167.342 22.6074C167.334 22.6582 167.33 22.6914 167.33 22.707C167.322 22.7109 167.318 22.748 167.318 22.8184C167.318 22.8809 167.32 22.9453 167.324 23.0117C167.328 23.0781 167.33 23.1211 167.33 23.1406C167.33 23.1484 167.326 23.1641 167.318 23.1875C167.314 23.207 167.309 23.2305 167.301 23.2578C167.297 23.2812 167.291 23.3047 167.283 23.3281C167.279 23.3477 167.277 23.3594 167.277 23.3633C167.277 23.375 167.273 23.4297 167.266 23.5273C167.258 23.625 167.248 23.7383 167.236 23.8672C167.229 23.9922 167.219 24.1211 167.207 24.2539C167.199 24.3828 167.193 24.4883 167.189 24.5703V24.5938V24.6289C167.189 24.6445 167.191 24.6758 167.195 24.7227C167.199 24.7656 167.203 24.8125 167.207 24.8633C167.211 24.9141 167.215 24.9629 167.219 25.0098C167.223 25.0566 167.227 25.0918 167.23 25.1152C167.285 25.1777 167.354 25.2227 167.436 25.25C167.518 25.2773 167.594 25.291 167.664 25.291C167.742 25.291 167.811 25.2812 167.869 25.2617C167.932 25.2422 167.996 25.2324 168.062 25.2324C168.07 25.2324 168.094 25.2344 168.133 25.2383C168.176 25.2383 168.203 25.2383 168.215 25.2383C168.254 25.2578 168.277 25.2812 168.285 25.3086C168.297 25.3359 168.303 25.3711 168.303 25.4141C168.303 25.418 168.303 25.4258 168.303 25.4375C168.303 25.4492 168.299 25.4551 168.291 25.4551L167.887 25.8711L167.84 25.8945C167.801 25.9102 167.775 25.918 167.764 25.918C167.752 25.918 167.723 25.9199 167.676 25.9238C167.629 25.9277 167.578 25.9316 167.523 25.9355C167.469 25.9395 167.416 25.9434 167.365 25.9473C167.318 25.9512 167.289 25.9551 167.277 25.959C167.27 25.959 167.25 25.9629 167.219 25.9707C167.188 25.9746 167.154 25.9805 167.119 25.9883C167.084 25.9922 167.051 25.9961 167.02 26C166.992 26.0039 166.975 26.0039 166.967 26C166.959 26 166.943 25.998 166.92 25.9941C166.9 25.9863 166.877 25.9785 166.85 25.9707C166.822 25.959 166.795 25.9492 166.768 25.9414C166.74 25.9336 166.719 25.9258 166.703 25.918C166.641 25.8945 166.578 25.8633 166.516 25.8242C166.453 25.7852 166.406 25.7383 166.375 25.6836C166.352 25.6406 166.332 25.5938 166.316 25.543C166.305 25.4883 166.289 25.4395 166.27 25.3965C166.254 25.3496 166.23 25.3105 166.199 25.2793C166.168 25.248 166.119 25.2324 166.053 25.2324C166.049 25.2324 166.045 25.2344 166.041 25.2383C166.041 25.2383 166.039 25.2383 166.035 25.2383H166.023C165.926 25.3008 165.848 25.373 165.789 25.4551C165.734 25.5371 165.666 25.6133 165.584 25.6836C165.518 25.7383 165.449 25.7852 165.379 25.8242C165.312 25.8594 165.244 25.9043 165.174 25.959C165.154 25.9668 165.119 25.9746 165.068 25.9824C165.021 25.9902 164.969 25.998 164.91 26.0059C164.855 26.0176 164.801 26.0254 164.746 26.0293C164.695 26.0371 164.658 26.041 164.635 26.041C164.623 26.041 164.604 26.0391 164.576 26.0352C164.549 26.0352 164.518 26.0332 164.482 26.0293C164.451 26.0254 164.42 26.0195 164.389 26.0117C164.361 26.0078 164.342 26.0039 164.33 26C164.322 26 164.309 25.9941 164.289 25.9824C164.273 25.9668 164.256 25.9512 164.236 25.9355C164.217 25.9199 164.197 25.9062 164.178 25.8945C164.162 25.8789 164.152 25.8711 164.148 25.8711C163.977 25.7539 163.859 25.6094 163.797 25.4375C163.738 25.2656 163.709 25.082 163.709 24.8867ZM168.467 25.8184C168.467 25.7559 168.479 25.707 168.502 25.6719C168.529 25.6367 168.562 25.6113 168.602 25.5957C168.645 25.5762 168.691 25.5645 168.742 25.5605C168.797 25.5527 168.85 25.5469 168.9 25.543C168.908 25.5352 168.928 25.5312 168.959 25.5312C168.99 25.5312 169.023 25.5332 169.059 25.5371C169.098 25.541 169.123 25.543 169.135 25.543C169.174 25.5195 169.213 25.4902 169.252 25.4551C169.295 25.416 169.332 25.375 169.363 25.332C169.398 25.2852 169.426 25.2363 169.445 25.1855C169.469 25.1309 169.48 25.0781 169.48 25.0273L169.498 23.9199L169.51 23.6973L169.557 22.584C169.568 22.5137 169.574 22.4512 169.574 22.3965C169.578 22.3379 169.58 22.2812 169.58 22.2266C169.58 22.1602 169.572 22.0879 169.557 22.0098C169.545 21.9277 169.52 21.8555 169.48 21.793C169.426 21.7031 169.359 21.6191 169.281 21.541C169.207 21.459 169.121 21.3906 169.023 21.3359C169.016 21.332 169 21.3281 168.977 21.3242C168.953 21.3164 168.928 21.3086 168.9 21.3008C168.877 21.293 168.854 21.2832 168.83 21.2715C168.811 21.2559 168.801 21.2402 168.801 21.2246C168.801 21.1855 168.834 21.1426 168.9 21.0957C168.967 21.0488 169.043 21.0039 169.129 20.9609C169.215 20.9141 169.299 20.875 169.381 20.8438C169.467 20.8086 169.525 20.7812 169.557 20.7617C169.611 20.7383 169.662 20.709 169.709 20.6738C169.76 20.6348 169.809 20.5977 169.855 20.5625C169.906 20.5273 169.957 20.498 170.008 20.4746C170.059 20.4473 170.115 20.4336 170.178 20.4336C170.225 20.4336 170.262 20.4609 170.289 20.5156C170.316 20.5703 170.338 20.6387 170.354 20.7207C170.369 20.7988 170.383 20.8867 170.395 20.9844C170.406 21.0781 170.42 21.166 170.436 21.248C170.451 21.3262 170.471 21.3926 170.494 21.4473C170.518 21.502 170.551 21.5293 170.594 21.5293C170.621 21.5293 170.639 21.5273 170.646 21.5234C170.654 21.5195 170.67 21.5039 170.693 21.4766C170.697 21.4688 170.715 21.4434 170.746 21.4004C170.777 21.3535 170.812 21.3047 170.852 21.2539C170.895 21.1992 170.934 21.1504 170.969 21.1074C171.004 21.0645 171.027 21.0391 171.039 21.0312C171.078 20.9844 171.146 20.9258 171.244 20.8555C171.342 20.7852 171.447 20.7168 171.561 20.6504C171.678 20.584 171.791 20.5273 171.9 20.4805C172.01 20.4297 172.094 20.4043 172.152 20.4043C172.234 20.4043 172.312 20.4199 172.387 20.4512C172.465 20.4824 172.533 20.5273 172.592 20.5859C172.65 20.6406 172.697 20.7051 172.732 20.7793C172.768 20.8535 172.785 20.9316 172.785 21.0137C172.785 21.1699 172.75 21.3066 172.68 21.4238C172.613 21.541 172.498 21.6328 172.334 21.6992H172.264C172.193 21.6992 172.129 21.6836 172.07 21.6523C172.012 21.6172 171.953 21.5801 171.895 21.541C171.84 21.498 171.783 21.4609 171.725 21.4297C171.666 21.3945 171.604 21.377 171.537 21.377C171.447 21.377 171.367 21.3926 171.297 21.4238C171.23 21.4512 171.162 21.4805 171.092 21.5117C171.076 21.5234 171.051 21.5391 171.016 21.5586C170.984 21.5742 170.951 21.5938 170.916 21.6172C170.885 21.6367 170.854 21.6543 170.822 21.6699C170.795 21.6855 170.775 21.6953 170.764 21.6992C170.725 21.7266 170.689 21.7656 170.658 21.8164C170.627 21.8672 170.6 21.9238 170.576 21.9863C170.557 22.0449 170.539 22.1055 170.523 22.168C170.512 22.2305 170.504 22.2852 170.5 22.332C170.5 22.3359 170.498 22.3555 170.494 22.3906C170.49 22.4219 170.484 22.459 170.477 22.502C170.473 22.5449 170.469 22.5879 170.465 22.6309C170.461 22.6699 170.459 22.7012 170.459 22.7246V22.7363V22.7656C170.459 22.793 170.459 22.8477 170.459 22.9297C170.463 23.0078 170.467 23.1016 170.471 23.2109C170.475 23.3164 170.477 23.4297 170.477 23.5508C170.48 23.668 170.484 23.7812 170.488 23.8906C170.492 23.9961 170.494 24.0898 170.494 24.1719C170.498 24.25 170.5 24.3027 170.5 24.3301V24.9453C170.504 24.9648 170.512 25.002 170.523 25.0566C170.535 25.1113 170.549 25.1699 170.564 25.2324C170.584 25.291 170.604 25.3477 170.623 25.4023C170.646 25.4531 170.67 25.4844 170.693 25.4961C170.729 25.5117 170.777 25.5254 170.84 25.5371C170.906 25.5488 170.971 25.5645 171.033 25.584C171.1 25.5996 171.156 25.623 171.203 25.6543C171.25 25.6855 171.273 25.7266 171.273 25.7773C171.273 25.8203 171.26 25.8574 171.232 25.8887C171.205 25.916 171.172 25.9395 171.133 25.959C171.094 25.9785 171.051 25.9922 171.004 26C170.961 26.0117 170.922 26.0176 170.887 26.0176C170.797 26.0176 170.705 26.0098 170.611 25.9941C170.521 25.9785 170.432 25.9707 170.342 25.9707C170.24 25.9707 170.135 25.9785 170.025 25.9941C169.92 26.0098 169.818 26.0176 169.721 26.0176H169.703C169.695 26.0176 169.68 26.0156 169.656 26.0117C169.637 26.0117 169.613 26.0098 169.586 26.0059C169.562 26.0059 169.539 26.0039 169.516 26C169.496 26 169.484 26 169.48 26C169.469 26 169.439 26.002 169.393 26.0059C169.346 26.0137 169.312 26.0176 169.293 26.0176H169.07H168.889C168.842 26.0176 168.793 26.0156 168.742 26.0117C168.691 26.0078 168.645 26 168.602 25.9883C168.562 25.9727 168.529 25.9531 168.502 25.9297C168.479 25.9023 168.467 25.8652 168.467 25.8184ZM173.09 25.918C173.09 25.875 173.092 25.834 173.096 25.7949C173.104 25.7559 173.123 25.7227 173.154 25.6953C173.17 25.6953 173.201 25.6934 173.248 25.6895C173.295 25.6816 173.342 25.6758 173.389 25.6719C173.439 25.6641 173.486 25.6562 173.529 25.6484C173.576 25.6406 173.609 25.6367 173.629 25.6367C173.719 25.625 173.781 25.5879 173.816 25.5254C173.855 25.4629 173.881 25.3887 173.893 25.3027C173.904 25.2168 173.912 25.1289 173.916 25.0391C173.92 24.9453 173.936 24.8633 173.963 24.793C173.967 24.7422 173.969 24.6562 173.969 24.5352C173.973 24.4102 173.977 24.2793 173.98 24.1426C173.984 24.0059 173.986 23.877 173.986 23.7559C173.99 23.6309 173.992 23.5449 173.992 23.498C173.992 23.4863 173.992 23.457 173.992 23.4102C173.996 23.3594 173.998 23.3027 173.998 23.2402C173.998 23.1777 173.998 23.1152 173.998 23.0527C174.002 22.9863 174.004 22.9316 174.004 22.8887C174.004 22.8574 174.002 22.8145 173.998 22.7598C173.998 22.7012 173.998 22.6445 173.998 22.5898C173.998 22.5352 173.996 22.4863 173.992 22.4434C173.992 22.3965 173.992 22.3691 173.992 22.3613C173.992 22.3496 173.99 22.3262 173.986 22.291C173.986 22.2559 173.984 22.2188 173.98 22.1797C173.977 22.1406 173.973 22.1055 173.969 22.0742C173.969 22.043 173.967 22.0234 173.963 22.0156C173.959 22 173.943 21.9785 173.916 21.9512C173.889 21.9238 173.867 21.9023 173.852 21.8867C173.844 21.8555 173.818 21.8184 173.775 21.7754C173.732 21.7285 173.701 21.7012 173.682 21.6934C173.643 21.666 173.598 21.6523 173.547 21.6523C173.496 21.6484 173.445 21.6445 173.395 21.6406C173.344 21.6367 173.299 21.625 173.26 21.6055C173.221 21.5859 173.195 21.543 173.184 21.4766C173.184 21.4688 173.189 21.4551 173.201 21.4355C173.217 21.4121 173.229 21.3965 173.236 21.3887C173.24 21.377 173.25 21.3633 173.266 21.3477C173.285 21.3281 173.305 21.3086 173.324 21.2891C173.344 21.2695 173.361 21.2539 173.377 21.2422C173.396 21.2266 173.41 21.2168 173.418 21.2129C173.422 21.2051 173.443 21.1875 173.482 21.1602C173.525 21.1328 173.576 21.1035 173.635 21.0723C173.693 21.0371 173.752 21.0039 173.811 20.9727C173.873 20.9375 173.924 20.9102 173.963 20.8906C174.025 20.8555 174.096 20.8281 174.174 20.8086C174.252 20.7852 174.328 20.7559 174.402 20.7207C174.469 20.6777 174.523 20.6367 174.566 20.5977C174.613 20.5586 174.676 20.5391 174.754 20.5391C174.828 20.5391 174.883 20.5684 174.918 20.627C174.953 20.6816 174.979 20.748 174.994 20.8262C175.01 20.9004 175.02 20.9785 175.023 21.0605C175.027 21.1387 175.033 21.2031 175.041 21.2539C175.041 21.2695 175.041 21.2969 175.041 21.3359C175.045 21.3711 175.047 21.4102 175.047 21.4531C175.051 21.4961 175.055 21.5371 175.059 21.5762C175.062 21.6152 175.066 21.6445 175.07 21.6641C175.09 21.6953 175.109 21.7188 175.129 21.7344C175.148 21.7461 175.176 21.752 175.211 21.752H175.264C175.271 21.7402 175.285 21.7246 175.305 21.7051C175.324 21.6816 175.346 21.6582 175.369 21.6348C175.393 21.6113 175.414 21.5898 175.434 21.5703C175.453 21.5469 175.467 21.5293 175.475 21.5176C175.475 21.5137 175.482 21.5 175.498 21.4766C175.518 21.4531 175.527 21.4375 175.527 21.4297C175.562 21.375 175.604 21.3398 175.65 21.3242C175.701 21.3047 175.748 21.2676 175.791 21.2129C175.881 21.0918 175.977 20.9941 176.078 20.9199C176.18 20.8418 176.297 20.7578 176.43 20.668C176.516 20.6016 176.609 20.5645 176.711 20.5566C176.812 20.5449 176.92 20.5391 177.033 20.5391C177.127 20.5391 177.211 20.5469 177.285 20.5625C177.363 20.5781 177.436 20.6016 177.502 20.6328C177.568 20.6602 177.633 20.6953 177.695 20.7383C177.762 20.7812 177.828 20.832 177.895 20.8906C177.973 20.9609 178.053 21.041 178.135 21.1309C178.221 21.2207 178.279 21.3203 178.311 21.4297C178.311 21.457 178.312 21.4961 178.316 21.5469C178.324 21.5938 178.332 21.6406 178.34 21.6875C178.352 21.7344 178.361 21.7773 178.369 21.8164C178.377 21.8555 178.383 21.8789 178.387 21.8867V22.332C178.387 22.3359 178.389 22.3516 178.393 22.3789C178.396 22.4023 178.4 22.4297 178.404 22.4609C178.412 22.4883 178.418 22.5156 178.422 22.543C178.43 22.5703 178.434 22.5879 178.434 22.5957V22.6426V22.6836C178.434 22.6953 178.43 22.7227 178.422 22.7656C178.418 22.8086 178.412 22.8555 178.404 22.9062C178.4 22.957 178.396 23.0059 178.393 23.0527C178.389 23.0957 178.387 23.125 178.387 23.1406V23.457V24.2539C178.387 24.2617 178.385 24.2793 178.381 24.3066C178.377 24.334 178.371 24.3633 178.363 24.3945C178.359 24.4219 178.355 24.4492 178.352 24.4766C178.348 24.5 178.346 24.5137 178.346 24.5176V25.127C178.346 25.1816 178.35 25.2461 178.357 25.3203C178.365 25.3906 178.391 25.459 178.434 25.5254C178.477 25.5176 178.518 25.5117 178.557 25.5078C178.6 25.5039 178.643 25.502 178.686 25.502C178.729 25.502 178.77 25.5039 178.809 25.5078C178.848 25.5117 178.885 25.5176 178.92 25.5254C178.932 25.5254 178.947 25.5391 178.967 25.5664C178.99 25.5898 179.006 25.6094 179.014 25.625C179.014 25.6328 179.016 25.6426 179.02 25.6543C179.02 25.6621 179.02 25.6699 179.02 25.6777C179.023 25.6855 179.025 25.6914 179.025 25.6953C179.025 25.7305 179.016 25.7676 178.996 25.8066C178.98 25.8418 178.959 25.875 178.932 25.9062C178.908 25.9375 178.879 25.9629 178.844 25.9824C178.812 26.002 178.781 26.0117 178.75 26.0117H178.709C178.701 26.0078 178.682 26.002 178.65 25.9941C178.619 25.9863 178.586 25.9805 178.551 25.9766C178.516 25.9727 178.48 25.9688 178.445 25.9648C178.414 25.9609 178.395 25.959 178.387 25.959C178.375 25.959 178.344 25.9609 178.293 25.9648C178.246 25.9688 178.193 25.9727 178.135 25.9766C178.076 25.9805 178.02 25.9863 177.965 25.9941C177.91 26.002 177.871 26.0078 177.848 26.0117C177.84 26.0117 177.818 26.0156 177.783 26.0234C177.748 26.0352 177.725 26.041 177.713 26.041H177.045C177.033 26.0449 177.008 26.0488 176.969 26.0527C176.93 26.0566 176.887 26.0605 176.84 26.0645C176.797 26.0684 176.756 26.0723 176.717 26.0762C176.678 26.0801 176.652 26.082 176.641 26.082H176.57C176.551 26.082 176.531 26.0703 176.512 26.0469C176.492 26.0234 176.475 25.9961 176.459 25.9648C176.443 25.9336 176.43 25.9004 176.418 25.8652C176.41 25.8301 176.406 25.8008 176.406 25.7773C176.406 25.7266 176.439 25.6895 176.506 25.666C176.576 25.6426 176.654 25.625 176.74 25.6133C176.83 25.6016 176.916 25.5918 176.998 25.584C177.084 25.5723 177.145 25.5547 177.18 25.5312C177.191 25.5234 177.205 25.5059 177.221 25.4785C177.24 25.4512 177.26 25.4219 177.279 25.3906C177.299 25.3594 177.314 25.3281 177.326 25.2969C177.342 25.2656 177.354 25.2402 177.361 25.2207C177.373 25.1855 177.381 25.1582 177.385 25.1387C177.389 25.1152 177.393 25.0957 177.396 25.0801C177.4 25.0605 177.402 25.041 177.402 25.0215C177.402 24.998 177.402 24.9688 177.402 24.9336V24.5176C177.402 24.5059 177.402 24.4746 177.402 24.4238C177.402 24.373 177.402 24.3184 177.402 24.2598C177.406 24.1973 177.408 24.1406 177.408 24.0898C177.408 24.0352 177.408 24.002 177.408 23.9902C177.404 23.9473 177.4 23.8809 177.396 23.791C177.396 23.7012 177.395 23.6016 177.391 23.4922C177.387 23.3789 177.383 23.2617 177.379 23.1406C177.379 23.0156 177.377 22.8984 177.373 22.7891C177.373 22.6758 177.373 22.5762 177.373 22.4902C177.373 22.4004 177.373 22.334 177.373 22.291C177.365 22.1934 177.34 22.0918 177.297 21.9863C177.258 21.8809 177.203 21.7852 177.133 21.6992C177.062 21.6094 176.982 21.5371 176.893 21.4824C176.803 21.4238 176.705 21.3926 176.6 21.3887C176.557 21.3848 176.508 21.3867 176.453 21.3945C176.398 21.4023 176.342 21.4121 176.283 21.4238C176.225 21.4355 176.168 21.4512 176.113 21.4707C176.059 21.4863 176.008 21.502 175.961 21.5176C175.938 21.5293 175.9 21.5469 175.85 21.5703C175.803 21.5938 175.756 21.6191 175.709 21.6465C175.662 21.6699 175.619 21.6914 175.58 21.7109C175.545 21.7305 175.527 21.7441 175.527 21.752C175.516 21.7598 175.492 21.7852 175.457 21.8281C175.426 21.8711 175.393 21.918 175.357 21.9688C175.326 22.0195 175.295 22.0664 175.264 22.1094C175.236 22.1523 175.219 22.1797 175.211 22.1914C175.141 22.293 175.1 22.3984 175.088 22.5078C175.08 22.6172 175.064 22.7344 175.041 22.8594C175.033 22.875 175.023 22.9062 175.012 22.9531C175.004 23 175 23.0332 175 23.0527V23.4043C175 23.416 174.996 23.4434 174.988 23.4863C174.98 23.5293 174.973 23.5762 174.965 23.627C174.957 23.6777 174.949 23.7266 174.941 23.7734C174.934 23.8164 174.93 23.8457 174.93 23.8613V24.459C174.93 24.5645 174.93 24.6602 174.93 24.7461C174.93 24.832 174.932 24.916 174.936 24.998C174.943 25.0762 174.951 25.1582 174.959 25.2441C174.967 25.3262 174.98 25.4199 175 25.5254C175.023 25.5684 175.057 25.5957 175.1 25.6074C175.146 25.6191 175.197 25.625 175.252 25.625C175.283 25.625 175.314 25.623 175.346 25.6191C175.377 25.6152 175.41 25.6133 175.445 25.6133C175.5 25.6133 175.549 25.6426 175.592 25.7012C175.635 25.7559 175.656 25.8145 175.656 25.877C175.656 25.9473 175.629 25.9941 175.574 26.0176C175.52 26.041 175.459 26.0527 175.393 26.0527C175.361 26.0527 175.332 26.0508 175.305 26.0469C175.281 26.043 175.26 26.041 175.24 26.041C175.119 26.041 174.998 26.0332 174.877 26.0176C174.756 26.0059 174.635 26 174.514 26C174.361 26 174.205 26.0059 174.045 26.0176C173.885 26.0332 173.723 26.041 173.559 26.041C173.531 26.041 173.494 26.043 173.447 26.0469C173.4 26.0547 173.357 26.0586 173.318 26.0586C173.256 26.0586 173.201 26.0488 173.154 26.0293C173.111 26.0098 173.09 25.9727 173.09 25.918ZM189.83 25.7656C189.83 25.6719 189.855 25.5996 189.906 25.5488C189.957 25.4941 190.021 25.457 190.1 25.4375C190.182 25.4141 190.271 25.4004 190.369 25.3965C190.471 25.3926 190.57 25.3906 190.668 25.3906C190.77 25.3906 190.863 25.3887 190.949 25.3848C191.039 25.377 191.111 25.3594 191.166 25.332C191.166 25.3086 191.168 25.2656 191.172 25.2031C191.18 25.1367 191.188 25.0684 191.195 24.998C191.203 24.9277 191.209 24.8613 191.213 24.7988C191.221 24.7324 191.227 24.6875 191.23 24.6641C191.23 24.6602 191.232 24.6504 191.236 24.6348C191.24 24.6152 191.244 24.5957 191.248 24.5762C191.256 24.5566 191.262 24.5371 191.266 24.5176C191.27 24.498 191.271 24.4863 191.271 24.4824V24.4707V24.4414C191.271 24.4297 191.264 24.3965 191.248 24.3418C191.236 24.2832 191.23 24.1875 191.23 24.0547V23.5859C191.25 23.5508 191.264 23.5137 191.271 23.4746C191.279 23.4316 191.283 23.3887 191.283 23.3457C191.283 23.2363 191.273 23.1309 191.254 23.0293C191.238 22.9277 191.23 22.8223 191.23 22.7129V22.6426C191.234 22.6309 191.24 22.6191 191.248 22.6074C191.264 22.584 191.271 22.5703 191.271 22.5664C191.275 22.5625 191.279 22.543 191.283 22.5078C191.287 22.4727 191.289 22.4336 191.289 22.3906C191.293 22.3477 191.297 22.3047 191.301 22.2617C191.305 22.2188 191.309 22.1836 191.312 22.1562V22.1387C191.312 22.084 191.307 22.0195 191.295 21.9453C191.287 21.8672 191.266 21.8027 191.23 21.752V20.7266C191.238 20.7227 191.246 20.7109 191.254 20.6914C191.266 20.6719 191.271 20.6543 191.271 20.6387C191.271 20.627 191.264 20.6035 191.248 20.5684C191.236 20.5332 191.23 20.5117 191.23 20.5039V20.4277V20.3223C191.23 20.3105 191.236 20.2949 191.248 20.2754L191.271 20.2402C191.271 20.2363 191.27 20.2324 191.266 20.2285C191.262 20.2246 191.256 20.2148 191.248 20.1992C191.24 20.1875 191.234 20.1758 191.23 20.1641V19.7539C191.227 19.7422 191.221 19.7207 191.213 19.6895C191.205 19.6543 191.195 19.6172 191.184 19.5781C191.172 19.5391 191.162 19.5039 191.154 19.4727C191.146 19.4375 191.141 19.4141 191.137 19.4023C191.137 19.3906 191.129 19.3789 191.113 19.3672C191.102 19.3555 191.094 19.3457 191.09 19.3379H191.055H191.049C191.037 19.3496 191.021 19.3652 191.002 19.3848C190.982 19.4043 190.963 19.4238 190.943 19.4434C190.928 19.4629 190.912 19.4805 190.896 19.4961C190.881 19.5117 190.871 19.5215 190.867 19.5254C190.867 19.5254 190.865 19.5352 190.861 19.5547C190.857 19.5703 190.852 19.5879 190.844 19.6074C190.84 19.627 190.836 19.6465 190.832 19.666C190.828 19.6816 190.826 19.6914 190.826 19.6953C190.764 19.8789 190.688 20.0586 190.598 20.2344C190.508 20.4062 190.414 20.5703 190.316 20.7266C190.246 20.8633 190.176 21.0059 190.105 21.1543C190.035 21.3027 189.961 21.4453 189.883 21.582C189.793 21.7461 189.699 21.9082 189.602 22.0684C189.508 22.2246 189.426 22.3906 189.355 22.5664C189.348 22.5703 189.336 22.5918 189.32 22.6309C189.309 22.6699 189.303 22.6953 189.303 22.707C189.299 22.7109 189.289 22.7266 189.273 22.7539C189.262 22.7773 189.248 22.8047 189.232 22.8359C189.217 22.8633 189.201 22.8906 189.186 22.918C189.174 22.9414 189.166 22.9551 189.162 22.959C189.143 23.0215 189.125 23.0898 189.109 23.1641C189.094 23.2383 189.066 23.3086 189.027 23.375C188.992 23.4375 188.941 23.5137 188.875 23.6035C188.812 23.6934 188.76 23.7793 188.717 23.8613C188.717 23.8691 188.711 23.8926 188.699 23.9316C188.691 23.9668 188.688 23.9863 188.688 23.9902C188.68 24.002 188.662 24.0254 188.635 24.0605C188.611 24.0957 188.584 24.1348 188.553 24.1777C188.521 24.2207 188.49 24.2637 188.459 24.3066C188.432 24.3496 188.408 24.3828 188.389 24.4062L188.359 24.4414C188.359 24.4492 188.357 24.4648 188.354 24.4883C188.35 24.5078 188.346 24.5312 188.342 24.5586C188.338 24.582 188.332 24.6055 188.324 24.6289C188.32 24.6484 188.316 24.6602 188.312 24.6641C188.312 24.668 188.301 24.6875 188.277 24.7227C188.254 24.7539 188.238 24.7773 188.23 24.793C188.168 24.8828 188.129 24.9707 188.113 25.0566C188.102 25.1426 188.08 25.2344 188.049 25.332C188.049 25.3398 188.043 25.3555 188.031 25.3789C188.02 25.4023 188.014 25.416 188.014 25.4199C188.006 25.4277 187.994 25.4531 187.979 25.4961C187.967 25.5352 187.953 25.5781 187.938 25.625C187.922 25.6719 187.906 25.7148 187.891 25.7539C187.879 25.793 187.871 25.8184 187.867 25.8301C187.859 25.8652 187.842 25.8887 187.814 25.9004C187.787 25.9121 187.756 25.918 187.721 25.918C187.693 25.918 187.662 25.9004 187.627 25.8652C187.592 25.8262 187.557 25.7832 187.521 25.7363C187.486 25.6855 187.455 25.6367 187.428 25.5898C187.404 25.543 187.387 25.5078 187.375 25.4844C187.336 25.3516 187.303 25.2188 187.275 25.0859C187.248 24.9531 187.211 24.8281 187.164 24.7109C187.152 24.6992 187.135 24.6719 187.111 24.6289C187.092 24.582 187.07 24.5332 187.047 24.4824C187.023 24.4316 187 24.3848 186.977 24.3418C186.957 24.2949 186.945 24.2656 186.941 24.2539C186.934 24.2461 186.922 24.2246 186.906 24.1895C186.895 24.1504 186.881 24.1094 186.865 24.0664C186.85 24.0195 186.834 23.9766 186.818 23.9375C186.807 23.8984 186.797 23.873 186.789 23.8613C186.773 23.8145 186.758 23.7773 186.742 23.75C186.727 23.7188 186.709 23.6895 186.689 23.6621C186.674 23.6348 186.656 23.6055 186.637 23.5742C186.621 23.543 186.605 23.5039 186.59 23.457C186.543 23.3867 186.508 23.3125 186.484 23.2344C186.461 23.1562 186.434 23.084 186.402 23.0176C186.402 23.0176 186.396 23.0098 186.385 22.9941C186.373 22.9785 186.359 22.9609 186.344 22.9414C186.328 22.918 186.312 22.8965 186.297 22.877C186.285 22.8574 186.273 22.8418 186.262 22.8301L186.221 22.7891C186.217 22.7812 186.207 22.7578 186.191 22.7188C186.18 22.6758 186.166 22.6309 186.15 22.584C186.135 22.5371 186.121 22.4941 186.109 22.4551C186.098 22.4121 186.092 22.3867 186.092 22.3789C186.061 22.3203 186.02 22.2617 185.969 22.2031C185.922 22.1406 185.885 22.082 185.857 22.0273C185.857 22.0156 185.85 21.9863 185.834 21.9395C185.822 21.8926 185.816 21.8633 185.816 21.8516C185.809 21.8438 185.793 21.8242 185.77 21.793C185.746 21.7578 185.734 21.7305 185.734 21.7109C185.688 21.6562 185.648 21.5938 185.617 21.5234C185.586 21.4531 185.557 21.3809 185.529 21.3066C185.502 21.2324 185.475 21.1582 185.447 21.084C185.424 21.0059 185.395 20.9316 185.359 20.8613C185.359 20.8535 185.352 20.8398 185.336 20.8203C185.324 20.7969 185.318 20.7793 185.318 20.7676C185.26 20.6543 185.209 20.5312 185.166 20.3984C185.127 20.2617 185.074 20.1328 185.008 20.0117L184.967 19.9766C184.916 19.9062 184.873 19.8379 184.838 19.7715C184.807 19.7051 184.775 19.6387 184.744 19.5723C184.717 19.502 184.689 19.4336 184.662 19.3672C184.635 19.2969 184.602 19.2266 184.562 19.1562H184.527H184.51C184.502 19.1562 184.488 19.166 184.469 19.1855C184.449 19.2012 184.436 19.2129 184.428 19.2207C184.365 19.3105 184.309 19.4219 184.258 19.5547C184.207 19.6836 184.172 19.8047 184.152 19.918V20.832C184.152 20.8359 184.15 20.8516 184.146 20.8789C184.143 20.9023 184.137 20.9297 184.129 20.9609C184.125 20.9883 184.121 21.0156 184.117 21.043C184.113 21.0664 184.111 21.0801 184.111 21.084V21.1016V21.125C184.111 21.1367 184.113 21.166 184.117 21.2129C184.121 21.2559 184.125 21.3027 184.129 21.3535C184.137 21.4043 184.143 21.4531 184.146 21.5C184.15 21.543 184.152 21.5703 184.152 21.582C184.152 21.625 184.156 21.6914 184.164 21.7812C184.172 21.8711 184.176 21.9688 184.176 22.0742C184.176 22.1836 184.172 22.2832 184.164 22.373C184.156 22.4629 184.152 22.5273 184.152 22.5664C184.164 22.5742 184.174 22.5957 184.182 22.6309C184.193 22.6621 184.205 22.6875 184.217 22.707V22.7363C184.217 22.8066 184.199 22.873 184.164 22.9355C184.129 22.9941 184.111 23.0625 184.111 23.1406C184.111 23.1562 184.113 23.1875 184.117 23.2344C184.121 23.2812 184.125 23.3301 184.129 23.3809C184.137 23.4277 184.143 23.4727 184.146 23.5156C184.15 23.5547 184.152 23.5781 184.152 23.5859C184.152 23.6133 184.156 23.6484 184.164 23.6914C184.172 23.7344 184.176 23.7715 184.176 23.8027C184.176 23.916 184.17 24.0215 184.158 24.1191C184.15 24.2168 184.146 24.3242 184.146 24.4414C184.146 24.5742 184.15 24.7031 184.158 24.8281C184.166 24.9531 184.186 25.0742 184.217 25.1914C184.221 25.2266 184.234 25.2578 184.258 25.2852C184.281 25.3086 184.307 25.3301 184.334 25.3496C184.365 25.3652 184.396 25.3789 184.428 25.3906C184.459 25.4023 184.486 25.4121 184.51 25.4199C184.521 25.4199 184.551 25.4219 184.598 25.4258C184.648 25.4297 184.701 25.4355 184.756 25.4434C184.814 25.4473 184.867 25.4531 184.914 25.4609C184.965 25.4688 184.996 25.4766 185.008 25.4844C185.055 25.4883 185.105 25.4941 185.16 25.502C185.219 25.5098 185.271 25.5234 185.318 25.543C185.369 25.5625 185.412 25.5918 185.447 25.6309C185.482 25.6699 185.5 25.7227 185.5 25.7891C185.5 25.8281 185.482 25.8613 185.447 25.8887C185.416 25.9121 185.377 25.9336 185.33 25.9531C185.287 25.9688 185.242 25.9805 185.195 25.9883C185.152 25.9961 185.119 26 185.096 26H183.092C183.029 26.0195 182.982 26.0332 182.951 26.041C182.92 26.0488 182.879 26.0527 182.828 26.0527C182.762 26.0527 182.691 26.0488 182.617 26.041C182.543 26.0332 182.477 26.0195 182.418 26C182.395 25.9922 182.367 25.9785 182.336 25.959C182.305 25.9395 182.289 25.9258 182.289 25.918C182.242 25.8672 182.219 25.8164 182.219 25.7656C182.219 25.7422 182.223 25.7168 182.23 25.6895C182.242 25.6582 182.262 25.6309 182.289 25.6074C182.289 25.584 182.336 25.5664 182.43 25.5547C182.523 25.5391 182.629 25.5195 182.746 25.4961C182.867 25.4727 182.982 25.4414 183.092 25.4023C183.201 25.3633 183.271 25.3086 183.303 25.2383C183.311 25.2266 183.316 25.2109 183.32 25.1914C183.324 25.1719 183.328 25.1504 183.332 25.127C183.34 25.1035 183.348 25.0801 183.355 25.0566C183.367 25.0332 183.381 25.0156 183.396 25.0039C183.404 24.9961 183.412 24.9746 183.42 24.9395C183.432 24.9004 183.441 24.8613 183.449 24.8223C183.461 24.7793 183.469 24.7402 183.473 24.7051C183.48 24.666 183.484 24.6406 183.484 24.6289C183.488 24.5977 183.492 24.541 183.496 24.459C183.504 24.377 183.512 24.291 183.52 24.2012C183.527 24.1113 183.533 24.0254 183.537 23.9434C183.545 23.8613 183.549 23.8027 183.549 23.7676C183.549 23.752 183.553 23.7285 183.561 23.6973C183.572 23.666 183.578 23.6465 183.578 23.6387V23.6152V23.5859C183.57 23.5742 183.564 23.5605 183.561 23.5449C183.553 23.5137 183.549 23.498 183.549 23.498V23.4863V23.457C183.588 23.332 183.607 23.207 183.607 23.082C183.611 22.957 183.617 22.832 183.625 22.707C183.625 22.6953 183.627 22.6797 183.631 22.6602C183.635 22.6367 183.639 22.6133 183.643 22.5898C183.65 22.5625 183.656 22.5391 183.66 22.5195C183.664 22.4961 183.666 22.4805 183.666 22.4727C183.67 22.4375 183.674 22.373 183.678 22.2793C183.682 22.1855 183.686 22.0859 183.689 21.9805C183.693 21.875 183.697 21.7773 183.701 21.6875C183.705 21.5938 183.707 21.5312 183.707 21.5L183.748 21.3887C183.76 21.1152 183.783 20.8496 183.818 20.5918C183.857 20.334 183.881 20.0664 183.889 19.7891L183.93 19.7539V19.584C183.93 19.498 183.922 19.418 183.906 19.3438C183.895 19.2656 183.889 19.1836 183.889 19.0977V19.0859C183.889 19.0703 183.895 19.0527 183.906 19.0332C183.922 19.0098 183.93 18.9941 183.93 18.9863V18.7754C183.93 18.6738 183.916 18.5938 183.889 18.5352C183.861 18.4727 183.822 18.4238 183.771 18.3887C183.721 18.3535 183.66 18.3262 183.59 18.3066C183.52 18.2832 183.443 18.2598 183.361 18.2363C183.342 18.2246 183.309 18.2129 183.262 18.2012C183.219 18.1855 183.172 18.1699 183.121 18.1543C183.07 18.1387 183.021 18.123 182.975 18.1074C182.928 18.0879 182.893 18.0723 182.869 18.0605C182.85 18.0527 182.83 18.0312 182.811 17.9961C182.795 17.957 182.787 17.9277 182.787 17.9082C182.787 17.8848 182.795 17.8633 182.811 17.8438C182.826 17.8242 182.844 17.8066 182.863 17.791C182.887 17.7715 182.908 17.7578 182.928 17.75C182.951 17.7383 182.971 17.7305 182.986 17.7266H183.578C183.801 17.7266 184.02 17.7383 184.234 17.7617C184.453 17.7812 184.674 17.791 184.896 17.791C184.936 17.791 184.975 17.7891 185.014 17.7852C185.053 17.7812 185.094 17.7793 185.137 17.7793C185.215 17.7793 185.283 17.8066 185.342 17.8613C185.4 17.916 185.449 17.9824 185.488 18.0605C185.531 18.1348 185.568 18.2129 185.6 18.2949C185.631 18.377 185.66 18.4453 185.688 18.5C185.688 18.5039 185.693 18.5195 185.705 18.5469C185.717 18.5703 185.73 18.5977 185.746 18.6289C185.762 18.6562 185.775 18.6836 185.787 18.7109C185.803 18.7383 185.812 18.7559 185.816 18.7637C185.816 18.7676 185.818 18.7793 185.822 18.7988C185.826 18.8145 185.83 18.832 185.834 18.8516C185.842 18.8711 185.848 18.8887 185.852 18.9043C185.855 18.9199 185.857 18.9297 185.857 18.9336C185.857 18.9414 185.863 18.957 185.875 18.9805C185.891 19.0039 185.906 19.0293 185.922 19.0566C185.938 19.0801 185.951 19.1035 185.963 19.127C185.979 19.1465 185.986 19.1562 185.986 19.1562C185.99 19.168 185.998 19.1973 186.01 19.2441C186.025 19.291 186.041 19.3398 186.057 19.3906C186.072 19.4375 186.086 19.4824 186.098 19.5254C186.109 19.5684 186.117 19.5938 186.121 19.6016C186.133 19.6211 186.15 19.6582 186.174 19.7129C186.197 19.7637 186.223 19.8184 186.25 19.877C186.281 19.9355 186.311 19.9922 186.338 20.0469C186.365 20.0977 186.387 20.1367 186.402 20.1641C186.402 20.168 186.414 20.1816 186.438 20.2051C186.461 20.2246 186.477 20.2363 186.484 20.2402C186.488 20.252 186.494 20.2637 186.502 20.2754C186.518 20.2988 186.525 20.3145 186.525 20.3223C186.561 20.4199 186.596 20.5195 186.631 20.6211C186.666 20.7188 186.709 20.8164 186.76 20.9141C186.76 20.918 186.771 20.9316 186.795 20.9551C186.818 20.9785 186.834 20.9941 186.842 21.002C186.85 21.0098 186.861 21.0293 186.877 21.0605C186.893 21.0879 186.908 21.1211 186.924 21.1602C186.943 21.1992 186.961 21.2383 186.977 21.2773C186.996 21.3125 187.012 21.3398 187.023 21.3594C187.023 21.3633 187.029 21.3828 187.041 21.418C187.057 21.4531 187.064 21.4805 187.064 21.5C187.08 21.5625 187.096 21.6152 187.111 21.6582C187.131 21.7012 187.152 21.7402 187.176 21.7754C187.199 21.8105 187.225 21.8477 187.252 21.8867C187.279 21.9258 187.309 21.9727 187.34 22.0273C187.34 22.0312 187.344 22.043 187.352 22.0625C187.363 22.0781 187.373 22.0957 187.381 22.1152C187.393 22.1309 187.402 22.1484 187.41 22.168C187.418 22.1836 187.424 22.1934 187.428 22.1973C187.482 22.334 187.545 22.4746 187.615 22.6191C187.689 22.7637 187.748 22.9082 187.791 23.0527C187.791 23.0566 187.793 23.0703 187.797 23.0938C187.801 23.1133 187.805 23.1367 187.809 23.1641C187.812 23.1875 187.816 23.2109 187.82 23.2344C187.828 23.2578 187.832 23.2715 187.832 23.2754C187.832 23.2793 187.838 23.291 187.85 23.3105C187.865 23.3301 187.883 23.3516 187.902 23.375C187.922 23.3984 187.941 23.4219 187.961 23.4453C187.98 23.4688 187.998 23.4863 188.014 23.498C188.045 23.541 188.076 23.5762 188.107 23.6035C188.143 23.627 188.188 23.6387 188.242 23.6387C188.258 23.6387 188.277 23.625 188.301 23.5977C188.328 23.5703 188.354 23.5391 188.377 23.5039C188.404 23.4688 188.43 23.4336 188.453 23.3984C188.477 23.3633 188.492 23.3359 188.5 23.3164C188.555 23.2266 188.596 23.1348 188.623 23.041C188.65 22.9434 188.682 22.8418 188.717 22.7363L188.764 22.707C188.764 22.6953 188.766 22.6797 188.77 22.6602C188.773 22.6406 188.777 22.6211 188.781 22.6016C188.789 22.582 188.795 22.5645 188.799 22.5488C188.803 22.5332 188.805 22.5254 188.805 22.5254C188.805 22.5137 188.809 22.4961 188.816 22.4727C188.824 22.4492 188.834 22.4258 188.846 22.4023C188.857 22.3789 188.867 22.3574 188.875 22.3379C188.887 22.3184 188.895 22.3066 188.898 22.3027C188.902 22.2988 188.91 22.2891 188.922 22.2734C188.938 22.2539 188.951 22.2324 188.963 22.209C188.979 22.1855 188.992 22.166 189.004 22.1504C189.02 22.1309 189.027 22.1191 189.027 22.1152C189.031 22.1152 189.035 22.1055 189.039 22.0859C189.047 22.0664 189.053 22.0469 189.057 22.0273C189.061 22.0039 189.062 21.9844 189.062 21.9688C189.066 21.9492 189.068 21.9375 189.068 21.9336C189.076 21.9219 189.088 21.9004 189.104 21.8691C189.123 21.8379 189.143 21.8047 189.162 21.7695C189.182 21.7305 189.199 21.6953 189.215 21.6641C189.234 21.6289 189.248 21.6016 189.256 21.582C189.369 21.3789 189.477 21.1699 189.578 20.9551C189.68 20.7363 189.781 20.5254 189.883 20.3223C189.887 20.3184 189.895 20.3066 189.906 20.2871C189.922 20.2637 189.938 20.2402 189.953 20.2168C189.969 20.1895 189.982 20.166 189.994 20.1465C190.01 20.123 190.02 20.1074 190.023 20.0996C190.027 20.0918 190.035 20.0762 190.047 20.0527C190.059 20.0254 190.072 19.998 190.088 19.9707C190.104 19.9395 190.117 19.9121 190.129 19.8887C190.141 19.8613 190.146 19.8438 190.146 19.8359C190.209 19.7188 190.264 19.5996 190.311 19.4785C190.357 19.3535 190.406 19.2324 190.457 19.1152C190.457 19.1074 190.463 19.0859 190.475 19.0508C190.49 19.0156 190.498 18.9941 190.498 18.9863C190.506 18.9785 190.529 18.957 190.568 18.9219C190.611 18.8867 190.637 18.8613 190.645 18.8457C190.645 18.8418 190.646 18.832 190.65 18.8164C190.654 18.8008 190.658 18.7852 190.662 18.7695C190.666 18.75 190.67 18.7324 190.674 18.7168C190.678 18.6973 190.68 18.6855 190.68 18.6816C190.691 18.6543 190.707 18.623 190.727 18.5879C190.75 18.5527 190.773 18.5195 190.797 18.4883C190.82 18.4531 190.842 18.4219 190.861 18.3945C190.881 18.3633 190.896 18.3379 190.908 18.3184C190.936 18.2715 190.959 18.2227 190.979 18.1719C190.998 18.1211 191.02 18.0723 191.043 18.0254C191.066 17.9746 191.092 17.9277 191.119 17.8848C191.146 17.8418 191.184 17.8066 191.23 17.7793C191.25 17.7637 191.283 17.7461 191.33 17.7266C191.377 17.707 191.404 17.6973 191.412 17.6973H192.52C192.535 17.6895 192.564 17.6797 192.607 17.668C192.654 17.6523 192.686 17.6445 192.701 17.6445H192.742C192.785 17.6445 192.83 17.6543 192.877 17.6738C192.924 17.6895 192.969 17.6973 193.012 17.6973C193.047 17.6973 193.082 17.6895 193.117 17.6738C193.156 17.6543 193.193 17.6445 193.229 17.6445H193.275C193.291 17.6445 193.318 17.6465 193.357 17.6504C193.396 17.6543 193.438 17.6602 193.48 17.668C193.523 17.6719 193.564 17.6777 193.604 17.6855C193.643 17.6895 193.67 17.6934 193.686 17.6973C193.709 17.7051 193.723 17.7188 193.727 17.7383C193.73 17.7578 193.732 17.7754 193.732 17.791C193.732 17.834 193.729 17.8691 193.721 17.8965C193.713 17.9238 193.701 17.959 193.686 18.002C193.674 18.0059 193.654 18.0137 193.627 18.0254C193.604 18.0332 193.578 18.041 193.551 18.0488C193.523 18.0566 193.496 18.0645 193.469 18.0723C193.445 18.0801 193.43 18.084 193.422 18.084C193.391 18.0879 193.338 18.0938 193.264 18.1016C193.193 18.1055 193.117 18.1113 193.035 18.1191C192.957 18.123 192.881 18.127 192.807 18.1309C192.736 18.1348 192.688 18.1367 192.66 18.1367C192.605 18.1875 192.553 18.248 192.502 18.3184C192.451 18.3848 192.426 18.4609 192.426 18.5469V19.1562V19.7891C192.434 19.9023 192.451 20.0117 192.479 20.1172C192.506 20.2227 192.52 20.332 192.52 20.4453V20.5742C192.52 20.6016 192.518 20.6289 192.514 20.6562C192.514 20.6797 192.504 20.7031 192.484 20.7266V21.9746C192.504 22.0215 192.514 22.0605 192.514 22.0918C192.518 22.1191 192.52 22.1543 192.52 22.1973V22.3027C192.5 22.4512 192.471 22.5977 192.432 22.7422C192.393 22.8867 192.373 23.043 192.373 23.2109C192.373 23.2539 192.379 23.293 192.391 23.3281C192.402 23.3633 192.414 23.3984 192.426 23.4336C192.441 23.4688 192.455 23.5059 192.467 23.5449C192.479 23.584 192.484 23.6289 192.484 23.6797V25.1094C192.488 25.1172 192.498 25.1328 192.514 25.1562C192.533 25.1758 192.551 25.1973 192.566 25.2207C192.586 25.2441 192.604 25.2676 192.619 25.291C192.639 25.3105 192.652 25.3242 192.66 25.332C192.699 25.3789 192.756 25.4102 192.83 25.4258C192.904 25.4414 192.984 25.4512 193.07 25.4551C193.156 25.459 193.244 25.4629 193.334 25.4668C193.424 25.4668 193.504 25.4785 193.574 25.502C193.648 25.5254 193.709 25.5645 193.756 25.6191C193.803 25.6699 193.826 25.7461 193.826 25.8477C193.826 25.9375 193.789 26 193.715 26.0352C193.645 26.0742 193.57 26.0938 193.492 26.0938H193.369C193.361 26.0938 193.346 26.0918 193.322 26.0879C193.303 26.084 193.279 26.0781 193.252 26.0703C193.229 26.0664 193.207 26.0605 193.188 26.0527C193.168 26.0488 193.158 26.0449 193.158 26.041C193.139 26.041 193.098 26.0391 193.035 26.0352C192.977 26.0352 192.91 26.0332 192.836 26.0293C192.766 26.0254 192.697 26.0195 192.631 26.0117C192.564 26.0078 192.516 26.0039 192.484 26C192.43 26 192.385 25.998 192.35 25.9941C192.314 25.9902 192.262 25.9785 192.191 25.959H191.898C191.684 25.959 191.471 25.9668 191.26 25.9824C191.049 25.9941 190.836 26 190.621 26H190.146C190.115 26 190.08 25.9961 190.041 25.9883C190.006 25.9766 189.973 25.9609 189.941 25.9414C189.91 25.9219 189.883 25.8984 189.859 25.8711C189.84 25.8398 189.83 25.8047 189.83 25.7656ZM195.514 23.6973C195.514 23.9199 195.559 24.1348 195.648 24.3418C195.742 24.5449 195.863 24.7266 196.012 24.8867C196.059 24.9336 196.105 24.9863 196.152 25.0449C196.199 25.1035 196.248 25.1602 196.299 25.2148C196.354 25.2695 196.41 25.3203 196.469 25.3672C196.531 25.4141 196.598 25.4492 196.668 25.4727L197.037 25.5547H197.084H197.137C197.172 25.5508 197.221 25.5469 197.283 25.543C197.346 25.5391 197.408 25.5352 197.471 25.5312C197.533 25.5273 197.588 25.5234 197.635 25.5195C197.682 25.5156 197.709 25.5137 197.717 25.5137C197.775 25.502 197.84 25.4727 197.91 25.4258C197.984 25.3789 198.059 25.3262 198.133 25.2676C198.207 25.2051 198.277 25.1426 198.344 25.0801C198.414 25.0137 198.475 24.959 198.525 24.916C198.529 24.916 198.535 24.9121 198.543 24.9043C198.547 24.9004 198.551 24.8945 198.555 24.8867C198.652 24.6836 198.73 24.4707 198.789 24.248C198.852 24.0215 198.883 23.8008 198.883 23.5859C198.883 23.4102 198.867 23.2461 198.836 23.0938C198.809 22.9414 198.762 22.7891 198.695 22.6367C198.695 22.625 198.688 22.6016 198.672 22.5664C198.66 22.5312 198.654 22.5098 198.654 22.502C198.631 22.4004 198.605 22.291 198.578 22.1738C198.555 22.0527 198.504 21.9531 198.426 21.875C198.418 21.8633 198.396 21.8398 198.361 21.8047C198.326 21.7695 198.287 21.7324 198.244 21.6934C198.205 21.6543 198.168 21.6172 198.133 21.582C198.102 21.5469 198.084 21.5234 198.08 21.5117C198.072 21.5078 198.061 21.498 198.045 21.4824C198.033 21.4629 198.02 21.4434 198.004 21.4238C197.988 21.4043 197.973 21.3867 197.957 21.3711C197.945 21.3516 197.939 21.3398 197.939 21.3359C197.928 21.3281 197.91 21.3125 197.887 21.2891C197.867 21.2617 197.854 21.2441 197.846 21.2363C197.838 21.2363 197.824 21.2324 197.805 21.2246C197.785 21.2129 197.764 21.2012 197.74 21.1895C197.717 21.1777 197.695 21.168 197.676 21.1602C197.656 21.1484 197.645 21.1426 197.641 21.1426C197.629 21.1348 197.598 21.125 197.547 21.1133C197.496 21.1016 197.441 21.0898 197.383 21.0781C197.328 21.0664 197.275 21.0566 197.225 21.0488C197.178 21.0371 197.148 21.0293 197.137 21.0254C197.117 21.0254 197.086 21.0293 197.043 21.0371C197 21.041 196.955 21.0488 196.908 21.0605C196.861 21.0684 196.816 21.0762 196.773 21.084C196.73 21.0918 196.695 21.0977 196.668 21.1016C196.613 21.1562 196.557 21.207 196.498 21.2539C196.443 21.2969 196.389 21.3418 196.334 21.3887C196.279 21.4316 196.227 21.4785 196.176 21.5293C196.129 21.5762 196.088 21.6309 196.053 21.6934C196.045 21.7051 196.029 21.7305 196.006 21.7695C195.986 21.8086 195.963 21.8516 195.936 21.8984C195.912 21.9453 195.889 21.9883 195.865 22.0273C195.846 22.0664 195.834 22.0898 195.83 22.0977C195.807 22.1445 195.779 22.1953 195.748 22.25C195.721 22.3008 195.693 22.3555 195.666 22.4141C195.639 22.4727 195.615 22.5332 195.596 22.5957C195.58 22.6543 195.57 22.7109 195.566 22.7656C195.559 22.8086 195.551 22.877 195.543 22.9707C195.539 23.0645 195.535 23.1621 195.531 23.2637C195.527 23.3613 195.523 23.4531 195.52 23.5391C195.516 23.6211 195.514 23.6738 195.514 23.6973ZM194.482 23.3457C194.482 23.2637 194.496 23.1816 194.523 23.0996C194.555 23.0176 194.58 22.9375 194.6 22.8594C194.604 22.8438 194.611 22.8008 194.623 22.7305C194.639 22.6562 194.654 22.5781 194.67 22.4961C194.689 22.4141 194.707 22.3379 194.723 22.2676C194.738 22.1973 194.748 22.1543 194.752 22.1387C194.76 22.1152 194.77 22.0918 194.781 22.0684C194.789 22.0488 194.797 22.0293 194.805 22.0098C194.816 21.9863 194.826 21.9688 194.834 21.957C194.861 21.918 194.895 21.8633 194.934 21.793C194.973 21.7227 195.01 21.6543 195.045 21.5879C195.084 21.5215 195.117 21.4648 195.145 21.418C195.176 21.3672 195.195 21.3398 195.203 21.3359C195.207 21.3242 195.223 21.3047 195.25 21.2773C195.277 21.2461 195.307 21.2129 195.338 21.1777C195.373 21.1426 195.406 21.1113 195.438 21.084C195.469 21.0527 195.494 21.0332 195.514 21.0254C195.521 21.0137 195.543 21.0039 195.578 20.9961C195.617 20.9883 195.641 20.9844 195.648 20.9844C195.766 20.9258 195.877 20.8711 195.982 20.8203C196.088 20.7695 196.193 20.7207 196.299 20.6738C196.408 20.627 196.52 20.584 196.633 20.5449C196.746 20.5059 196.871 20.4688 197.008 20.4336H197.014H197.037C197.104 20.4375 197.189 20.4434 197.295 20.4512C197.4 20.4551 197.502 20.4609 197.6 20.4688C197.701 20.4727 197.787 20.4766 197.857 20.4805C197.932 20.4844 197.973 20.4863 197.98 20.4863C198.156 20.502 198.33 20.5566 198.502 20.6504C198.678 20.7402 198.84 20.8535 198.988 20.9902C199.141 21.127 199.271 21.2793 199.381 21.4473C199.494 21.6113 199.578 21.7715 199.633 21.9277C199.637 21.9316 199.641 21.9492 199.645 21.9805C199.652 22.0078 199.658 22.0391 199.662 22.0742C199.67 22.1094 199.676 22.1426 199.68 22.1738C199.688 22.2012 199.695 22.2188 199.703 22.2266C199.703 22.2344 199.709 22.2578 199.721 22.2969C199.736 22.332 199.752 22.3711 199.768 22.4141C199.787 22.457 199.803 22.4961 199.814 22.5312C199.83 22.5664 199.84 22.5879 199.844 22.5957C199.844 22.6035 199.846 22.6133 199.85 22.625C199.85 22.6328 199.85 22.6406 199.85 22.6484C199.854 22.6562 199.855 22.6621 199.855 22.666C199.855 22.7324 199.852 22.7969 199.844 22.8594C199.836 22.918 199.832 22.9785 199.832 23.041C199.832 23.0918 199.836 23.1367 199.844 23.1758C199.855 23.2148 199.861 23.2578 199.861 23.3047V23.4043C199.811 23.6387 199.762 23.8652 199.715 24.084C199.668 24.2988 199.602 24.502 199.516 24.6934C199.43 24.8809 199.316 25.0547 199.176 25.2148C199.035 25.375 198.846 25.5156 198.607 25.6367C198.377 25.7539 198.139 25.8457 197.893 25.9121C197.65 25.9785 197.402 26.0117 197.148 26.0117C197.125 26.0117 197.094 26.0098 197.055 26.0059C197.02 26.0059 196.984 26.0059 196.949 26.0059C196.914 26.0059 196.883 26.0039 196.855 26C196.828 26 196.814 26 196.814 26C196.811 26 196.781 25.9941 196.727 25.9824C196.676 25.9668 196.613 25.9492 196.539 25.9297C196.469 25.9102 196.396 25.8906 196.322 25.8711C196.248 25.8477 196.188 25.8301 196.141 25.8184C196.098 25.8066 196.053 25.7949 196.006 25.7832C195.959 25.7715 195.914 25.752 195.871 25.7246C195.762 25.666 195.654 25.6035 195.549 25.5371C195.443 25.4707 195.34 25.4023 195.238 25.332C195.234 25.3242 195.229 25.3164 195.221 25.3086C195.213 25.2969 195.207 25.2871 195.203 25.2793C195.117 25.1738 195.031 25.043 194.945 24.8867C194.859 24.7266 194.781 24.5586 194.711 24.3828C194.645 24.2031 194.59 24.0234 194.547 23.8438C194.504 23.6602 194.482 23.4941 194.482 23.3457ZM200.365 25.8184C200.365 25.7559 200.377 25.707 200.4 25.6719C200.428 25.6367 200.461 25.6113 200.5 25.5957C200.543 25.5762 200.59 25.5645 200.641 25.5605C200.695 25.5527 200.748 25.5469 200.799 25.543C200.807 25.5352 200.826 25.5312 200.857 25.5312C200.889 25.5312 200.922 25.5332 200.957 25.5371C200.996 25.541 201.021 25.543 201.033 25.543C201.072 25.5195 201.111 25.4902 201.15 25.4551C201.193 25.416 201.23 25.375 201.262 25.332C201.297 25.2852 201.324 25.2363 201.344 25.1855C201.367 25.1309 201.379 25.0781 201.379 25.0273L201.396 23.9199L201.408 23.6973L201.455 22.584C201.467 22.5137 201.473 22.4512 201.473 22.3965C201.477 22.3379 201.479 22.2812 201.479 22.2266C201.479 22.1602 201.471 22.0879 201.455 22.0098C201.443 21.9277 201.418 21.8555 201.379 21.793C201.324 21.7031 201.258 21.6191 201.18 21.541C201.105 21.459 201.02 21.3906 200.922 21.3359C200.914 21.332 200.898 21.3281 200.875 21.3242C200.852 21.3164 200.826 21.3086 200.799 21.3008C200.775 21.293 200.752 21.2832 200.729 21.2715C200.709 21.2559 200.699 21.2402 200.699 21.2246C200.699 21.1855 200.732 21.1426 200.799 21.0957C200.865 21.0488 200.941 21.0039 201.027 20.9609C201.113 20.9141 201.197 20.875 201.279 20.8438C201.365 20.8086 201.424 20.7812 201.455 20.7617C201.51 20.7383 201.561 20.709 201.607 20.6738C201.658 20.6348 201.707 20.5977 201.754 20.5625C201.805 20.5273 201.855 20.498 201.906 20.4746C201.957 20.4473 202.014 20.4336 202.076 20.4336C202.123 20.4336 202.16 20.4609 202.188 20.5156C202.215 20.5703 202.236 20.6387 202.252 20.7207C202.268 20.7988 202.281 20.8867 202.293 20.9844C202.305 21.0781 202.318 21.166 202.334 21.248C202.35 21.3262 202.369 21.3926 202.393 21.4473C202.416 21.502 202.449 21.5293 202.492 21.5293C202.52 21.5293 202.537 21.5273 202.545 21.5234C202.553 21.5195 202.568 21.5039 202.592 21.4766C202.596 21.4688 202.613 21.4434 202.645 21.4004C202.676 21.3535 202.711 21.3047 202.75 21.2539C202.793 21.1992 202.832 21.1504 202.867 21.1074C202.902 21.0645 202.926 21.0391 202.938 21.0312C202.977 20.9844 203.045 20.9258 203.143 20.8555C203.24 20.7852 203.346 20.7168 203.459 20.6504C203.576 20.584 203.689 20.5273 203.799 20.4805C203.908 20.4297 203.992 20.4043 204.051 20.4043C204.133 20.4043 204.211 20.4199 204.285 20.4512C204.363 20.4824 204.432 20.5273 204.49 20.5859C204.549 20.6406 204.596 20.7051 204.631 20.7793C204.666 20.8535 204.684 20.9316 204.684 21.0137C204.684 21.1699 204.648 21.3066 204.578 21.4238C204.512 21.541 204.396 21.6328 204.232 21.6992H204.162C204.092 21.6992 204.027 21.6836 203.969 21.6523C203.91 21.6172 203.852 21.5801 203.793 21.541C203.738 21.498 203.682 21.4609 203.623 21.4297C203.564 21.3945 203.502 21.377 203.436 21.377C203.346 21.377 203.266 21.3926 203.195 21.4238C203.129 21.4512 203.061 21.4805 202.99 21.5117C202.975 21.5234 202.949 21.5391 202.914 21.5586C202.883 21.5742 202.85 21.5938 202.814 21.6172C202.783 21.6367 202.752 21.6543 202.721 21.6699C202.693 21.6855 202.674 21.6953 202.662 21.6992C202.623 21.7266 202.588 21.7656 202.557 21.8164C202.525 21.8672 202.498 21.9238 202.475 21.9863C202.455 22.0449 202.438 22.1055 202.422 22.168C202.41 22.2305 202.402 22.2852 202.398 22.332C202.398 22.3359 202.396 22.3555 202.393 22.3906C202.389 22.4219 202.383 22.459 202.375 22.502C202.371 22.5449 202.367 22.5879 202.363 22.6309C202.359 22.6699 202.357 22.7012 202.357 22.7246V22.7363V22.7656C202.357 22.793 202.357 22.8477 202.357 22.9297C202.361 23.0078 202.365 23.1016 202.369 23.2109C202.373 23.3164 202.375 23.4297 202.375 23.5508C202.379 23.668 202.383 23.7812 202.387 23.8906C202.391 23.9961 202.393 24.0898 202.393 24.1719C202.396 24.25 202.398 24.3027 202.398 24.3301V24.9453C202.402 24.9648 202.41 25.002 202.422 25.0566C202.434 25.1113 202.447 25.1699 202.463 25.2324C202.482 25.291 202.502 25.3477 202.521 25.4023C202.545 25.4531 202.568 25.4844 202.592 25.4961C202.627 25.5117 202.676 25.5254 202.738 25.5371C202.805 25.5488 202.869 25.5645 202.932 25.584C202.998 25.5996 203.055 25.623 203.102 25.6543C203.148 25.6855 203.172 25.7266 203.172 25.7773C203.172 25.8203 203.158 25.8574 203.131 25.8887C203.104 25.916 203.07 25.9395 203.031 25.959C202.992 25.9785 202.949 25.9922 202.902 26C202.859 26.0117 202.82 26.0176 202.785 26.0176C202.695 26.0176 202.604 26.0098 202.51 25.9941C202.42 25.9785 202.33 25.9707 202.24 25.9707C202.139 25.9707 202.033 25.9785 201.924 25.9941C201.818 26.0098 201.717 26.0176 201.619 26.0176H201.602C201.594 26.0176 201.578 26.0156 201.555 26.0117C201.535 26.0117 201.512 26.0098 201.484 26.0059C201.461 26.0059 201.438 26.0039 201.414 26C201.395 26 201.383 26 201.379 26C201.367 26 201.338 26.002 201.291 26.0059C201.244 26.0137 201.211 26.0176 201.191 26.0176H200.969H200.787C200.74 26.0176 200.691 26.0156 200.641 26.0117C200.59 26.0078 200.543 26 200.5 25.9883C200.461 25.9727 200.428 25.9531 200.4 25.9297C200.377 25.9023 200.365 25.8652 200.365 25.8184ZM205.932 22.127C205.932 22.1504 205.941 22.1738 205.961 22.1973C205.984 22.2207 206.01 22.2441 206.037 22.2676C206.068 22.2871 206.098 22.3047 206.125 22.3203C206.156 22.332 206.182 22.3418 206.201 22.3496H206.811H207.408C207.439 22.3457 207.492 22.3398 207.566 22.332C207.645 22.3242 207.725 22.3164 207.807 22.3086C207.893 22.2969 207.973 22.2852 208.047 22.2734C208.125 22.2617 208.18 22.25 208.211 22.2383C208.219 22.2305 208.229 22.2129 208.24 22.1855C208.256 22.1543 208.264 22.1348 208.264 22.127V22.0742V22.0273C208.264 22.0156 208.262 21.9941 208.258 21.9629C208.254 21.9277 208.248 21.8926 208.24 21.8574C208.236 21.8184 208.23 21.7812 208.223 21.7461C208.219 21.7109 208.215 21.6855 208.211 21.6699C208.172 21.6426 208.139 21.6094 208.111 21.5703C208.084 21.5312 208.055 21.4941 208.023 21.459C207.996 21.4199 207.965 21.3848 207.93 21.3535C207.898 21.3223 207.859 21.2969 207.812 21.2773C207.785 21.2656 207.748 21.25 207.701 21.2305C207.658 21.207 207.615 21.1855 207.572 21.166C207.529 21.1465 207.492 21.1289 207.461 21.1133C207.43 21.0977 207.412 21.0879 207.408 21.084H207.367H207.32C207.293 21.0879 207.258 21.0938 207.215 21.1016C207.172 21.1094 207.129 21.1172 207.086 21.125C207.043 21.1289 207.006 21.1328 206.975 21.1367C206.943 21.1406 206.926 21.1426 206.922 21.1426C206.91 21.1426 206.891 21.1504 206.863 21.166C206.84 21.1777 206.812 21.1914 206.781 21.207C206.754 21.2227 206.727 21.2383 206.699 21.2539C206.676 21.2656 206.66 21.2734 206.652 21.2773C206.586 21.3008 206.521 21.3184 206.459 21.3301C206.4 21.3418 206.35 21.3809 206.307 21.4473C206.299 21.459 206.281 21.4883 206.254 21.5352C206.227 21.582 206.209 21.6113 206.201 21.623C206.178 21.666 206.15 21.707 206.119 21.7461C206.088 21.7812 206.059 21.8184 206.031 21.8574C206.004 21.8926 205.98 21.9336 205.961 21.9805C205.941 22.0234 205.932 22.0723 205.932 22.127ZM205.047 23.5566V23.4453C205.051 23.4258 205.055 23.3887 205.059 23.334C205.066 23.2793 205.07 23.2227 205.07 23.1641C205.074 23.1016 205.078 23.043 205.082 22.9883C205.086 22.9336 205.092 22.8965 205.1 22.877C205.104 22.8066 205.113 22.7285 205.129 22.6426C205.148 22.5527 205.17 22.4629 205.193 22.373C205.221 22.2832 205.252 22.1973 205.287 22.1152C205.322 22.0293 205.361 21.9551 205.404 21.8926C205.408 21.8887 205.416 21.8809 205.428 21.8691C205.443 21.8535 205.459 21.8398 205.475 21.8281C205.49 21.8125 205.504 21.7988 205.516 21.7871C205.531 21.7754 205.541 21.7676 205.545 21.7637C205.549 21.7598 205.553 21.748 205.557 21.7285C205.564 21.709 205.572 21.6895 205.58 21.6699C205.588 21.6504 205.594 21.6328 205.598 21.6172C205.605 21.5977 205.611 21.5859 205.615 21.582C205.682 21.4688 205.764 21.375 205.861 21.3008C205.959 21.2266 206.059 21.1543 206.16 21.084C206.23 21.041 206.295 21.002 206.354 20.9668C206.416 20.9277 206.477 20.8945 206.535 20.8672C206.598 20.8359 206.662 20.8086 206.729 20.7852C206.799 20.7617 206.877 20.7422 206.963 20.7266C206.971 20.7266 207.002 20.7246 207.057 20.7207C207.115 20.7168 207.182 20.7148 207.256 20.7148C207.33 20.7109 207.406 20.707 207.484 20.7031C207.562 20.6992 207.625 20.6973 207.672 20.6973H207.725H207.777C207.906 20.7285 208.027 20.7656 208.141 20.8086C208.258 20.8477 208.365 20.8984 208.463 20.9609C208.564 21.0234 208.656 21.0996 208.738 21.1895C208.824 21.2754 208.902 21.3789 208.973 21.5C208.977 21.5078 208.982 21.5312 208.99 21.5703C208.998 21.6055 209.006 21.623 209.014 21.623C209.037 21.6816 209.064 21.7344 209.096 21.7812C209.131 21.8281 209.162 21.875 209.189 21.9219C209.221 21.9648 209.246 22.0117 209.266 22.0625C209.285 22.1094 209.295 22.1641 209.295 22.2266C209.295 22.3008 209.264 22.373 209.201 22.4434C209.143 22.5098 209.096 22.5625 209.061 22.6016C209.037 22.6094 208.994 22.6191 208.932 22.6309C208.873 22.6426 208.807 22.6543 208.732 22.666C208.662 22.6777 208.59 22.6875 208.516 22.6953C208.445 22.7031 208.387 22.707 208.34 22.707C208.324 22.707 208.289 22.707 208.234 22.707C208.184 22.7031 208.121 22.6992 208.047 22.6953C207.977 22.6914 207.9 22.6895 207.818 22.6895C207.736 22.6855 207.658 22.6836 207.584 22.6836C207.506 22.6836 207.438 22.6875 207.379 22.6953C207.324 22.7031 207.287 22.707 207.268 22.707C207.264 22.707 207.246 22.709 207.215 22.7129C207.188 22.7168 207.156 22.7227 207.121 22.7305C207.086 22.7344 207.053 22.7383 207.021 22.7422C206.99 22.7461 206.971 22.748 206.963 22.748C206.92 22.752 206.857 22.7539 206.775 22.7539C206.693 22.7539 206.602 22.7539 206.5 22.7539C206.398 22.7539 206.303 22.7539 206.213 22.7539C206.127 22.7539 206.066 22.752 206.031 22.748C206 22.752 205.979 22.7637 205.967 22.7832C205.955 22.7988 205.945 22.8164 205.938 22.8359C205.938 22.8359 205.936 22.8457 205.932 22.8652C205.932 22.8809 205.932 22.9004 205.932 22.9238C205.932 22.9473 205.932 22.9727 205.932 23C205.932 23.0234 205.932 23.043 205.932 23.0586C205.932 23.0781 205.932 23.1074 205.932 23.1465C205.932 23.1855 205.932 23.2246 205.932 23.2637C205.932 23.2988 205.932 23.332 205.932 23.3633C205.936 23.3945 205.938 23.4121 205.938 23.416C205.941 23.498 205.973 23.6094 206.031 23.75C206.09 23.8867 206.158 24.0254 206.236 24.166C206.318 24.3066 206.404 24.4375 206.494 24.5586C206.588 24.6758 206.674 24.7539 206.752 24.793C206.768 24.8047 206.805 24.8262 206.863 24.8574C206.922 24.8887 206.984 24.9219 207.051 24.957C207.117 24.9883 207.18 25.0195 207.238 25.0508C207.301 25.0781 207.344 25.0977 207.367 25.1094C207.387 25.1094 207.4 25.1074 207.408 25.1035C207.42 25.0996 207.434 25.0977 207.449 25.0977C207.527 25.0977 207.6 25.1074 207.666 25.127C207.736 25.1465 207.811 25.1562 207.889 25.1562H207.977C207.996 25.1562 208.018 25.1543 208.041 25.1504L208.627 24.8457C208.643 24.7988 208.662 24.752 208.686 24.7051C208.709 24.6543 208.736 24.6094 208.768 24.5703C208.803 24.5312 208.842 24.5 208.885 24.4766C208.932 24.4531 208.988 24.4414 209.055 24.4414H209.061C209.068 24.4492 209.078 24.4629 209.09 24.4824C209.105 24.502 209.113 24.5137 209.113 24.5176C209.113 24.5254 209.105 24.5469 209.09 24.582C209.078 24.6172 209.068 24.6445 209.061 24.6641C209.018 24.7773 208.973 24.8848 208.926 24.9863C208.879 25.0879 208.82 25.1895 208.75 25.291C208.742 25.2988 208.729 25.3125 208.709 25.332C208.689 25.3516 208.668 25.373 208.645 25.3965C208.621 25.4199 208.598 25.4434 208.574 25.4668C208.555 25.4863 208.539 25.502 208.527 25.5137C208.52 25.5176 208.504 25.5254 208.48 25.5371C208.461 25.5488 208.438 25.5625 208.41 25.5781C208.387 25.5898 208.365 25.6035 208.346 25.6191C208.326 25.6309 208.314 25.6387 208.311 25.6426C208.221 25.6973 208.141 25.7461 208.07 25.7891C208.004 25.832 207.936 25.8691 207.865 25.9004C207.799 25.9316 207.727 25.957 207.648 25.9766C207.574 25.9922 207.488 26 207.391 26C207.133 26 206.887 25.9707 206.652 25.9121C206.418 25.8496 206.205 25.7578 206.014 25.6367C205.822 25.5117 205.658 25.3555 205.521 25.168C205.389 24.9766 205.295 24.75 205.24 24.4883C205.225 24.4453 205.207 24.3809 205.188 24.2949C205.168 24.209 205.148 24.1211 205.129 24.0312C205.109 23.9414 205.092 23.8594 205.076 23.7852C205.061 23.707 205.051 23.6582 205.047 23.6387V23.5566Z" fill="black"/>
</svg>
